<svg class="custom-icon" xmlns="http://www.w3.org/2000/svg" viewBox="0 0 100 100" style="height:100px;width:100px"><path class="inner-shape" d="M73.52 38.24c-2.156 0-3.92 1.764-3.92 3.92v15.68c0 2.156 1.764 3.92 3.92 3.92 2.156 0 3.92-1.764 3.92-3.92V42.16c0-2.156-1.764-3.92-3.92-3.92zm-47.04 0c-2.156 0-3.92 1.764-3.92 3.92v15.68c0 2.156 1.764 3.92 3.92 3.92s3.92-1.764 3.92-3.92V42.16c0-2.156-1.764-3.92-3.92-3.92zm5.88 25.48c0 3.247 2.633 5.88 5.88 5.88h1.96v7.84c0 2.156 1.764 3.92 3.92 3.92 2.155 0 3.92-1.764 3.92-3.92V69.6h3.92v7.84c0 2.156 1.764 3.92 3.92 3.92 2.156 0 3.92-1.764 3.92-3.92V69.6h1.96c3.247 0 5.88-2.632 5.88-5.88V42.16H32.36v21.56zm24.904-39.598l2.48-4.766c.124-.24.03-.536-.207-.66-.24-.126-.537-.032-.662.207l-2.518 4.838c-1.972-.76-4.115-1.18-6.357-1.18s-4.385.42-6.357 1.18l-2.52-4.837c-.123-.24-.42-.333-.66-.208s-.332.422-.208.66l2.48 4.767c-5.55 2.512-9.57 7.814-10.266 14.118h35.06c-.696-6.304-4.714-11.606-10.266-14.118zM42.16 35.202c-1.57 0-2.842-1.272-2.842-2.842s1.273-2.84 2.842-2.84 2.842 1.27 2.842 2.84c0 1.57-1.273 2.842-2.842 2.842zm15.68 0c-1.57 0-2.842-1.272-2.842-2.842s1.273-2.84 2.842-2.84 2.842 1.27 2.842 2.84c0 1.57-1.273 2.842-2.842 2.842z" fill="#fff"/></svg>