<svg class="custom-icon" xmlns="http://www.w3.org/2000/svg" viewBox="0 0 100 100" style="height:100px;width:100px"><path class="inner-shape" d="M67.12 51.965c-.08-7.943 6.477-11.752 6.77-11.94-3.685-5.393-9.423-6.13-11.468-6.216-4.884-.495-9.53 2.874-12.01 2.874-2.472 0-6.297-2.802-10.347-2.73-5.324.08-10.233 3.096-12.974 7.864-5.53 9.598-1.415 23.817 3.976 31.6 2.634 3.81 5.775 8.09 9.9 7.938 3.97-.16 5.473-2.57 10.274-2.57 4.802 0 6.15 2.57 10.354 2.49 4.274-.078 6.98-3.88 9.598-7.704 3.025-4.42 4.27-8.7 4.344-8.92-.095-.043-8.333-3.2-8.417-12.687zm-7.898-23.31c2.19-2.655 3.666-6.34 3.263-10.015-3.153.13-6.975 2.1-9.238 4.75-2.03 2.35-3.806 6.102-3.33 9.704 3.52.274 7.113-1.79 9.305-4.44z" fill="#fff"/></svg>