<svg class="custom-icon" xmlns="http://www.w3.org/2000/svg" viewBox="0 0 100 100" style="height:100px;width:100px"><path class="inner-shape" d="M70.908 18.64H29.092c-5.772 0-10.452 4.68-10.452 10.454v41.812c0 5.774 4.68 10.454 10.452 10.454h41.816c5.772 0 10.452-4.68 10.452-10.454V29.094c0-5.773-4.68-10.454-10.452-10.454zm2.612 39.696c0 8.39-6.828 15.184-15.28 15.184H41.777c-8.444 0-15.296-6.793-15.296-15.184V41.67c.006-8.39 6.852-15.19 15.296-15.19h7.71c8.45 0 15.214 6.31 15.214 14.7.11 1.575 1.526 2.94 3.14 2.94h2.638c1.69 0 3.04 1.773 3.04 3.45l.002 10.766zm-11.76-.496c0 2.156-1.764 3.92-3.92 3.92H42.16c-2.156 0-3.92-1.764-3.92-3.92 0-2.156 1.764-3.92 3.92-3.92h15.68c2.156 0 3.92 1.764 3.92 3.92zm-7.84-15.68c0 2.156-1.764 3.92-3.92 3.92h-7.84c-2.156 0-3.92-1.764-3.92-3.92 0-2.156 1.764-3.92 3.92-3.92H50c2.156 0 3.92 1.764 3.92 3.92z" fill="#fff"/></svg>