<svg class="custom-icon" xmlns="http://www.w3.org/2000/svg" viewBox="0 0 100 100" style="height:100px;width:100px"><path class="inner-shape" d="M34.46 45.99l-8.976-15.545C31.23 23.25 40.076 18.64 50 18.64c11.48 0 21.517 6.17 26.982 15.374H51.394c-.46-.04-.925-.06-1.395-.06-7.466 0-13.756 5.122-15.54 12.037zm26.768-7.444h17.974C80.595 42.094 81.36 45.958 81.36 50c0 17.2-13.85 31.165-31.004 31.356L63.18 59.142c1.807-2.595 2.868-5.747 2.868-9.142 0-4.482-1.848-8.54-4.82-11.454zM38.608 50c0-6.282 5.11-11.393 11.392-11.393S61.393 43.717 61.393 50 56.283 61.393 50 61.393 38.607 56.283 38.607 50zm15.69 15.462l-8.977 15.55C30.22 78.752 18.64 65.73 18.64 50c0-5.587 1.462-10.832 4.024-15.375L35.468 56.8c2.564 5.46 8.113 9.247 14.533 9.247 1.49 0 2.93-.203 4.3-.585z" fill="#fff"/></svg>