<svg class="custom-icon" xmlns="http://www.w3.org/2000/svg" viewBox="0 0 100 100" style="height:100px;width:100px"><path class="inner-shape" d="M70.91 18.64H29.093c-5.75 0-10.455 4.705-10.455 10.455v41.81c0 5.754 4.704 10.455 10.454 10.455H70.91c5.75 0 10.45-4.7 10.45-10.454v-41.81c0-5.75-4.7-10.456-10.45-10.456zm6.53 52.266c0 1.735-.682 3.373-1.92 4.613-1.24 1.237-2.877 1.92-4.61 1.92H50V50H22.56V29.095c0-1.734.684-3.37 1.924-4.612s2.877-1.923 4.612-1.923H50V50h27.44v20.906z" fill="#fff"/></svg>