<svg class="custom-icon" xmlns="http://www.w3.org/2000/svg" viewBox="0 0 100 100" style="height:100px;width:100px"><path class="inner-shape" d="M67.17 24.046c-2.055-1.222-4.11-2.442-6.374-3.257-3.29-1.223-6.99-1.833-10.694-1.833-3.906 0-7.402.61-10.898 1.832-2.262.814-4.318 2.034-6.17 3.256C24.4 29.542 18.64 39.11 18.64 50.1c0 10.79 5.76 20.357 14.395 25.853 1.85 1.22 3.907 2.443 6.17 3.258 3.496 1.22 6.99 1.833 10.898 1.833 3.702 0 7.403-.612 10.694-1.832 2.262-.814 4.32-2.036 6.374-3.257C75.808 70.457 81.36 60.89 81.36 50.1c0-10.99-5.553-20.558-14.19-26.054zM56.274 22.01c1.646.407 3.084.814 4.523 1.426 2.262 1.016 4.524 2.238 6.375 3.46 5.348 3.867 9.256 9.568 10.9 16.082H66.553c-1.234-2.85-3.085-5.292-5.758-7.125-1.234-1.018-2.88-1.833-4.523-2.646V22.01zm-23.238 4.885c1.85-1.22 3.907-2.443 6.17-3.46 1.44-.61 3.085-1.018 4.73-1.425v11.196c-1.646.61-3.292 1.628-4.73 2.647-2.468 1.83-4.318 4.274-5.552 7.124H22.137c1.645-6.514 5.553-12.213 10.898-16.082zm10.9 51.094c-1.646-.408-3.292-.815-4.73-1.426-2.262-1.018-4.318-2.238-6.17-3.46-5.757-4.276-10.076-10.586-11.31-17.914H32.83c0 .203.206.203.206.203 1.03 3.664 3.29 6.514 6.17 8.754 1.44 1.017 3.085 2.036 4.73 2.646v11.195zm-4.73-17.1c-2.88-2.646-4.73-6.513-4.73-10.79 0-4.478 1.85-8.344 4.73-10.99 2.878-2.85 6.58-4.48 10.898-4.48 4.112 0 8.02 1.63 10.694 4.48 2.878 2.646 4.73 6.512 4.73 10.99 0 4.276-1.852 8.144-4.73 10.79-2.673 2.85-6.58 4.48-10.694 4.48-4.317-.002-8.02-1.63-10.9-4.48zM67.17 73.105c-1.85 1.222-4.11 2.442-6.374 3.46-1.44.61-2.88 1.017-4.523 1.425V66.793c1.646-.61 3.29-1.63 4.523-2.647 3.085-2.24 5.14-5.09 6.375-8.753v-.204h11.31c-1.44 7.328-5.55 13.638-11.31 17.914z" fill="#fff"/></svg>