<svg class="custom-icon" xmlns="http://www.w3.org/2000/svg" viewBox="0 0 100 100" style="height:100px;width:100px"><path class="inner-shape" d="M71.665 46.956c-11.255-6.214-22.7-5.643-22.7-5.643v-5.326H40.43v6.087s-6.197.444-14.48 6.023c-8.283 5.58-7.27 15.916-7.27 15.916h30.54V46.766s7.46-.824 13.782 2.726 6.07 7.926 6.07 7.926h-9.8v-7.925s.253-.19-1.96-.76c-2.212-.572-6.765-.762-6.765-.762v16.043h30.73s1.643-10.842-9.612-17.057zM40.493 57.608h-9.927s-.253-3.36 2.97-6.594 6.956-3.74 6.956-3.74v10.334z" fill="#fff"/></svg>