<svg class="custom-icon" xmlns="http://www.w3.org/2000/svg" viewBox="0 0 100 100" style="height:100px;width:100px"><path class="inner-shape" d="M65.537 32.504c-.42.6-3.95 5.343-12.284 8.466-3.84-7.056-8.098-12.853-8.746-13.72 1.762-.425 3.6-.652 5.492-.652 5.955 0 11.398 2.234 15.537 5.906zm-13.9 17.736c-12.087 3.907-18.52 14.558-19.05 15.467-3.743-4.156-6.026-9.65-6.026-15.67 0-.24.006-.48.013-.717 1.026.02 12.384.167 24.09-3.336.67 1.313 1.31 2.646 1.9 3.978-.31.087-.62.18-.925.278zM50 18.64c-17.32 0-31.36 14.04-31.36 31.36S32.68 81.36 50 81.36 81.36 67.32 81.36 50 67.32 18.64 50 18.64zm0 58.8c-15.13 0-27.44-12.31-27.44-27.44S34.87 22.56 50 22.56 77.44 34.87 77.44 50 65.13 77.44 50 77.44zm6.61-29.59c-.486-1.143-1.01-2.278-1.555-3.395 8.667-3.538 12.594-8.573 13.088-9.24 3.264 3.988 5.24 9.067 5.293 14.6-.772-.164-8.52-1.736-16.32-.755-.165-.4-.333-.805-.506-1.21zm-7.884-5.47c-10.963 2.91-20.62 2.87-21.668 2.855 1.52-7.273 6.42-13.318 12.978-16.41.618.847 4.806 6.65 8.69 13.555zM54 53.89c.052-.02.104-.035.155-.053 3.29 8.55 4.65 15.718 5 17.774-2.814 1.2-5.91 1.863-9.155 1.863-5.418 0-10.413-1.85-14.387-4.948.422-.862 5.168-10.03 18.388-14.636zm4.543-1.136c7.345-1.176 13.797.75 14.6 1.002-1.046 6.522-4.79 12.154-10.048 15.71-.24-1.426-1.487-8.287-4.552-16.712z" fill="#fff"/></svg>