<svg class="custom-icon" xmlns="http://www.w3.org/2000/svg" viewBox="0 0 100 100" style="height:100px;width:100px"><path class="inner-shape" d="M63.695 30.302c-3.212-1.994-6.242-2.78-9.27-4.774-1.88-1.27-4.486-4.29-6.668-6.888-.424 4.17-1.696 5.86-3.15 7.07-3.09 2.416-5.03 3.14-7.696 4.592-2.242 1.148-14.422 8.4-14.422 23.99S35.638 81.36 50.243 81.36s27.27-10.574 27.27-26.586S65.634 31.51 63.694 30.302zm.35 45.37c-.302.303-3.09 2.236-6.362 2.54-3.273.3-7.696.482-10.363-1.935-.424-.423-.302-1.027 0-1.27.303-.24.546-.422.91-.422.363 0 .302 0 .484.12 1.212.967 3.03 1.753 6.91 1.753s6.604-1.087 7.817-1.994c.546-.423.788-.06.85.18.06.244.18.607-.244 1.03zm-10.604-5.497c.668-.604 1.757-1.57 2.788-1.994 1.03-.422 1.576-.36 2.546-.36s2 .06 2.727.543c.728.484 1.152 1.57 1.395 2.175.242.604 0 .967-.485 1.21-.425.24-.486.12-.91-.666-.424-.785-.787-1.57-2.908-1.57-2.12 0-2.788.724-3.818 1.57-1.03.846-1.394 1.148-1.756.665-.365-.484-.244-.968.423-1.572zm16.06.483c-2.182-.18-6.545-6.95-9.333-7.07-3.515-.12-11.15 7.312-17.15 7.312-3.635 0-4.726-.544-5.938-1.33-1.82-1.27-2.728-3.202-2.668-5.86.06-4.714 4.485-9.125 10.06-9.185 7.09-.06 11.998 7.01 15.574 6.948 3.03-.06 8.847-5.982 11.695-5.982 3.03 0 3.88 3.144 3.88 5.016 0 1.873-.606 5.257-2.06 7.372-1.454 2.116-2.363 2.9-4.06 2.78z" fill="#fff"/></svg>