<svg class="custom-icon" xmlns="http://www.w3.org/2000/svg" viewBox="0 0 100 100" style="height:100px;width:100px"><path class="inner-shape" d="M81.27 39.106l-.727 4.66s-1.038-8.627-2.31-11.853c-1.95-4.942-2.82-4.902-2.825-4.895 1.306 3.32 1.07 5.103 1.07 5.103s-2.315-6.308-8.435-8.315c-6.78-2.222-10.447-1.615-10.872-1.5h-.184l.148.014c-.002 0-.006 0-.005.002.026.034 7.49 1.304 8.814 3.123 0 0-3.17 0-6.325.91-.144.04 11.607 1.466 14.01 13.21 0 0-1.29-2.688-2.882-3.145 1.048 3.187.778 9.235-.22 12.24-.128.388-.26-1.67-2.225-2.556.63 4.51-.037 11.666-3.167 13.636-.244.154 1.962-7.063.444-4.273-8.74 13.4-19.074 6.185-23.72 3.008 2.38.518 6.9-.08 8.9-1.57.004 0 .006-.002.01-.004 2.17-1.484 3.458-2.57 4.613-2.312 1.156.258 1.926-.902 1.028-1.93-.898-1.032-3.08-2.45-6.034-1.678-2.082.546-4.663 2.85-8.603.517-3.024-1.79-3.308-3.28-3.335-4.31.075-.367.17-.708.28-1.02.35-.97 1.404-1.265 1.99-1.496.996.172 1.855.483 2.755.944.012-.3.016-.698 0-1.15.085-.17.032-.688-.107-1.32-.08-.632-.21-1.285-.413-1.88h.002l.01-.005.012-.013c0-.002.002-.002.003-.003.005-.008.01-.017.012-.03.062-.282.736-.828 1.575-1.414.752-.526 1.636-1.084 2.333-1.516.615-.383 1.084-.667 1.184-.74.038-.03.083-.063.133-.1l.027-.023.018-.013c.33-.265.826-.763.93-1.81v-.01l.008-.093.004-.067c0-.018.002-.035.003-.053l.004-.127v-.007c.002-.1 0-.207-.006-.318-.003-.062-.007-.118-.018-.17 0-.003 0-.006-.002-.008l-.003-.016-.007-.026V34.7l-.012-.03c-.107-.25-.51-.347-2.17-.374h-.005c-.678-.012-1.564-.012-2.726-.008-2.038.008-3.163-1.99-3.523-2.764.492-2.723 1.916-4.664 4.253-5.98.045-.025.036-.045-.016-.06.457-.276-5.528-.008-8.28 3.494-2.443-.607-4.573-.566-6.408-.136-.353-.01-.792-.054-1.313-.162-1.22-1.106-2.967-3.15-3.06-5.587l-.016.013c0-.023-.003-.047-.004-.07 0 0-3.72 2.858-3.162 10.65 0 .125-.003.244-.007.36-1.007 1.366-1.506 2.513-1.543 2.767-.892 1.815-1.797 4.548-2.533 8.696 0 0 .515-1.634 1.55-3.484-.762 2.33-1.36 5.95-1.008 11.384 0 0 .092-1.205.42-2.94.257 3.37 1.38 7.53 4.217 12.422 5.448 9.39 13.822 14.133 23.078 14.86 1.645.135 3.31.14 4.988.01.154-.01.308-.02.462-.034 1.897-.133 3.806-.42 5.71-.88 26.043-6.296 23.21-37.743 23.21-37.743h.005z" fill="#fff"/></svg>