<svg class="custom-icon" xmlns="http://www.w3.org/2000/svg" viewBox="0 0 100 100" style="height:100px;width:100px"><path class="inner-shape" d="M41.153 18.64c-14.905 0-22.513 8.586-22.513 24.614v33.628l14.6-14.616V45.184c0-6.64 1.76-10.866 7.665-11.814 2.062-.404 6.355-.263 9.083-.263V43.25c0 .09.013.257.037.342.115.41.486.71.925.712.25 0 .482-.13.722-.365l25.304-25.296-35.823-.004zm25.605 19.094v17.082c0 6.64-1.76 10.867-7.663 11.814-2.062.404-6.355.263-9.084.263V56.75c0-.09-.012-.257-.036-.34-.114-.412-.485-.713-.925-.713-.25 0-.483.13-.723.365L23.024 81.356l35.823.004c14.905 0 22.513-8.586 22.513-24.613V23.12L66.758 37.733z" fill="#fff"/></svg>