<svg class="custom-icon" xmlns="http://www.w3.org/2000/svg" viewBox="0 0 100 100" style="height:100px;width:100px"><path class="inner-shape" d="M40.475 42.975c-1.14-1.152-2.99-1.152-4.133 0l-3.99 4.03c-1.142 1.152-1.142 3.02 0 4.173l11.216 11.327c.06.072.11.148.175.217l4.262 4.303c1.14 1.152 2.992 1.152 4.133 0L80.504 38.38c1.14-1.152 1.14-3.02 0-4.173l-4.26-4.303c-1.142-1.152-2.993-1.152-4.133 0L49.82 52.412l-9.345-9.437zm20.52 20.43c-.167.26-.358.505-.582.73l-7.16 7.232c-1.712 1.73-4.488 1.73-6.2 0L28.292 52.42c-1.71-1.728-1.71-4.53 0-6.26l7.162-7.23c1.712-1.73 4.487-1.73 6.198 0l8.738 8.823 15.54-15.69-11.11-11.22c-2.854-2.88-7.48-2.88-10.332 0L20.78 44.784c-2.853 2.88-2.853 7.55 0 10.43l23.71 23.943c2.853 2.882 7.478 2.882 10.33 0l23.707-23.938c2.7-2.726 2.84-7.053.43-9.95L60.994 63.405z" fill="#fff"/></svg>