<svg class="custom-icon" xmlns="http://www.w3.org/2000/svg" viewBox="0 0 100 100" style="height:100px;width:100px"><path class="inner-shape" d="M50 18.64c-17.32 0-31.36 14.04-31.36 31.36S32.68 81.36 50 81.36 81.36 67.32 81.36 50 67.32 18.64 50 18.64zm18.623 49.983c-2.42 2.42-5.237 4.32-8.373 5.647-.797.337-1.606.633-2.425.888v-4.7c0-2.47-.848-4.288-2.542-5.45 1.06-.104 2.036-.246 2.924-.43.89-.184 1.828-.45 2.818-.797.99-.346 1.878-.76 2.664-1.24.785-.48 1.54-1.102 2.265-1.867s1.333-1.634 1.822-2.603.878-2.134 1.164-3.49c.286-1.36.43-2.855.43-4.488 0-3.165-1.03-5.86-3.094-8.085.94-2.45.838-5.114-.305-7.993l-.766-.09c-.53-.063-1.485.162-2.863.672-1.377.51-2.924 1.348-4.638 2.512-2.43-.674-4.95-1.01-7.565-1.01-2.634 0-5.145.336-7.534 1.01-1.082-.736-2.108-1.342-3.078-1.822-.97-.48-1.745-.807-2.328-.98-.58-.174-1.122-.282-1.623-.323-.5-.04-.82-.05-.964-.03-.143.02-.245.04-.306.06-1.144 2.9-1.245 5.565-.306 7.994-2.062 2.225-3.093 4.92-3.093 8.085 0 1.633.143 3.13.43 4.487.285 1.356.673 2.52 1.162 3.49.49.97 1.098 1.837 1.822 2.603s1.48 1.388 2.266 1.868c.786.48 1.674.894 2.664 1.24.99.35 1.93.614 2.817.798.89.184 1.863.327 2.925.43-1.674 1.142-2.51 2.96-2.51 5.45v4.79c-.926-.274-1.838-.6-2.733-.978-3.136-1.327-5.954-3.226-8.374-5.647-2.42-2.42-4.32-5.237-5.647-8.373-1.372-3.243-2.068-6.692-2.068-10.25s.696-7.007 2.068-10.25c1.327-3.136 3.226-5.953 5.647-8.373s5.237-4.32 8.373-5.647c3.243-1.372 6.692-2.068 10.25-2.068s7.007.696 10.25 2.068c3.136 1.327 5.953 3.226 8.373 5.647 2.42 2.42 4.32 5.237 5.647 8.373 1.372 3.244 2.067 6.692 2.067 10.25s-.695 7.007-2.068 10.25c-1.327 3.136-3.227 5.953-5.647 8.373z" fill="#fff"/></svg>