<svg class="custom-icon" xmlns="http://www.w3.org/2000/svg" viewBox="0 0 100 100"><path class="inner-shape" d="M18.69 71.905c-.015-.155-.027-.31-.035-.467.008.157.02.312.036.467zm14.4-18.65c5.635.168 9.416-5.677 8.443-13.057-.973-7.38-6.332-13.3-11.968-13.47-5.636-.167-9.417 5.48-8.443 12.862.973 7.378 6.33 13.497 11.968 13.665zM81.36 34.32v-5.224c0-5.75-4.703-10.455-10.453-10.455H29.095c-5.652 0-10.29 4.548-10.447 10.164 3.575-3.147 8.533-5.777 13.65-5.777h21.88l-4.895 4.142h-6.938c4.602 1.763 7.053 7.11 7.053 12.598 0 4.61-2.56 8.572-6.18 11.39-3.53 2.75-4.198 3.902-4.198 6.24 0 1.995 3.78 5.39 5.76 6.785 5.78 4.076 7.65 7.86 7.65 14.176 0 1.005-.125 2.01-.37 2.997h18.848c5.75 0 10.452-4.7 10.452-10.454V38.24H69.6V50h-3.92V38.24H53.92v-3.92h11.76V22.56h3.92v11.76h11.76zM30.025 65.554c1.324 0 2.537-.037 3.794-.037-1.663-1.613-2.98-3.59-2.98-6.025 0-1.445.464-2.837 1.112-4.073-.66.047-1.334.06-2.03.06-4.553 0-8.42-1.474-11.28-3.91V68.04c3.272-1.554 7.158-2.487 11.384-2.487zm-11.175 7.43c-.068-.334-.12-.674-.155-1.018.035.344.088.684.156 1.018zM46.538 77c-.923-3.602-4.193-5.388-8.752-8.55-1.658-.534-3.485-.85-5.445-.87-5.49-.058-10.602 2.14-13.487 5.413.975 4.76 5.208 8.364 10.243 8.364H46.64c.11-.682.165-1.386.165-2.11 0-.766-.095-1.516-.268-2.247z" fill="#fff"/></svg>
