<svg class="custom-icon" xmlns="http://www.w3.org/2000/svg" viewBox="0 0 100 100" style="height:100px;width:100px"><path class="inner-shape" d="M65.976 54.848h15.22c.117-1.056.164-2.134.164-3.236 0-5.172-1.388-10.024-3.812-14.2 2.507-6.663 2.417-12.315-.938-15.694-3.192-3.177-11.753-2.66-21.432 1.625-.715-.054-1.438-.082-2.17-.082-13.283 0-24.43 9.143-27.51 21.46 4.167-5.334 8.55-9.203 14.408-12.02-.533.5-3.64 3.59-4.163 4.112C20.3 52.252 15.428 72.42 20.67 77.662c3.983 3.982 11.203 3.31 19.494-.752 3.856 1.964 8.22 3.07 12.845 3.07 12.45 0 23.003-8.014 26.826-19.177H64.5c-2.11 3.893-6.238 6.543-10.975 6.543-4.737 0-8.864-2.65-10.975-6.543-.938-1.758-1.477-3.775-1.477-5.91v-.046h24.903zm-24.88-7.48c.352-6.26 5.558-11.256 11.913-11.256s11.56 4.995 11.912 11.256H41.096zm35.374-22.5c2.162 2.183 2.108 6.202.26 11.218-3.168-4.83-7.77-8.635-13.204-10.808 5.81-2.49 10.535-2.82 12.944-.41zm-51.802 51.8c-2.76-2.76-1.927-8.55 1.626-15.528 2.212 6.207 6.523 11.417 12.08 14.774-6.153 2.793-11.19 3.267-13.705.753h-.002z" fill="#fff"/></svg>