<svg class="custom-icon" xmlns="http://www.w3.org/2000/svg" viewBox="0 0 100 100" style="height:100px;width:100px"><path class="inner-shape" d="M74.448 18.64H25.552c-3.808 0-6.895 3.09-6.895 6.9v48.92c0 3.81 3.087 6.9 6.895 6.9h48.896c3.808 0 6.895-3.09 6.895-6.9V25.54c0-3.81-3.088-6.9-6.895-6.9zM49.965 37.958c6.628 0 12.002 5.376 12.002 12.007 0 6.63-5.374 12.007-12.002 12.007s-12-5.376-12-12.007 5.372-12.007 12-12.007zm24.043 33.556c0 1.385-1.122 2.508-2.507 2.508H28.46c-1.385 0-2.507-1.123-2.507-2.508v-26.28h5.446c-.376 1.505-.578 3.078-.578 4.7 0 10.63 8.614 19.25 19.24 19.25s19.24-8.62 19.24-19.25c0-1.622-.2-3.195-.578-4.7h5.288v26.28zm.16-36.155c0 1.385-1.122 2.508-2.507 2.508h-7.117c-1.385 0-2.507-1.124-2.507-2.51v-7.122c0-1.385 1.122-2.508 2.507-2.508h7.118c1.387 0 2.51 1.123 2.51 2.508v7.123z" fill="#fff"/></svg>