<svg class="custom-icon" xmlns="http://www.w3.org/2000/svg" viewBox="0 0 100 100" style="height:100px;width:100px"><path class="inner-shape" d="M34.933 35.587c2.01-2.012 5.268-2.012 7.277-.002l.48.482 6.19-6.196-.48-.482c-3.53-3.535-8.485-4.77-13.012-3.707-.65-3.99-4.11-7.038-8.28-7.04-4.632 0-8.387 3.763-8.39 8.4 0 4.002 2.794 7.35 6.534 8.197-1.418 4.744-.26 10.096 3.48 13.84l13.956 13.96 6.186-6.2L34.92 42.882c-2-2.004-2.004-5.274.013-7.293zM81.28 27.04c.002-4.64-3.755-8.4-8.39-8.4-4.24 0-7.746 3.15-8.31 7.243-4.72-1.388-10.032-.214-13.76 3.516L36.867 43.356l6.192 6.197 13.95-13.957c2.02-2.02 5.267-2.015 7.27-.01 2.01 2.01 2.01 5.274-.002 7.285l-.478.48 6.187 6.2.482-.484c3.703-3.71 4.88-8.99 3.528-13.698 4.113-.54 7.285-4.064 7.286-8.33zM74.15 64.644c1.11-4.56-.12-9.575-3.68-13.138L56.532 37.54l-6.192 6.194L64.277 57.7c2.018 2.02 2.013 5.273.012 7.28-2.01 2.008-5.268 2.008-7.28-.003l-.474-.478-6.186 6.2.473.474c3.77 3.773 9.165 4.926 13.927 3.46.774 3.838 4.16 6.725 8.223 6.725 4.63 0 8.39-3.76 8.39-8.4 0-4.24-3.135-7.745-7.212-8.317zM56.146 51.02L42.21 64.987c-2.003 2.007-5.27 2.01-7.285-.007-2.01-2.017-2.01-5.275-.003-7.288l.478-.476-6.19-6.193-.475.472c-3.598 3.6-4.81 8.687-3.64 13.29-3.7.873-6.455 4.204-6.455 8.176 0 4.64 3.756 8.4 8.39 8.4 3.987-.002 7.325-2.78 8.18-6.516 4.574 1.137 9.615-.08 13.19-3.66L62.33 57.222l-6.186-6.2z" fill="#fff"/></svg>