<svg class="custom-icon" xmlns="http://www.w3.org/2000/svg" viewBox="0 0 100 100" style="height:100px;width:100px"><path class="inner-shape" d="M68.84 68.475c-6.535-.026-10.016-3.22-12.434-8.85l-.69-1.537L49.75 44.49c-1.978-4.813-6.885-8.065-12.423-8.065-7.493 0-13.572 6.08-13.572 13.578s6.08 13.577 13.572 13.577c5.227 0 9.77-2.956 12.04-7.29l2.412 5.565c-3.426 4.175-8.63 6.834-14.453 6.834-10.32 0-18.687-8.362-18.687-18.688 0-10.32 8.365-18.692 18.686-18.692 7.79 0 14.078 4.16 17.272 11.53.242.572 3.38 7.907 6.115 14.15 1.695 3.863 3.14 6.426 7.825 6.584 4.604.158 7.763-2.645 7.763-6.187 0-3.46-2.408-4.293-6.475-5.645-7.312-2.41-11.086-4.83-11.086-10.627 0-5.656 3.847-9.427 10.1-9.427 4.073 0 7.013 1.812 9.05 5.426l-3.997 2.04c-1.506-2.107-3.167-2.94-5.278-2.94-2.934 0-5.03 2.043-5.03 4.758 0 3.854 3.447 4.435 8.268 6.018 6.49 2.113 9.507 4.528 9.507 10.556 0 6.33-5.43 10.938-12.52 10.93z" fill="#fff"/></svg>