<svg class="custom-icon" xmlns="http://www.w3.org/2000/svg" viewBox="0 0 100 100"><path class="inner-shape" d="M70.825 18.64h-41.65c-5.794 0-10.535 4.74-10.535 10.535v41.65c0 5.794 4.74 10.535 10.535 10.535h41.65c5.794 0 10.535-4.74 10.535-10.535v-41.65c0-5.794-4.74-10.535-10.535-10.535zM42.16 69.6h-7.84V42.16h7.84V69.6zm-3.92-31.36c-2.165 0-3.92-1.755-3.92-3.92s1.755-3.92 3.92-3.92 3.92 1.755 3.92 3.92-1.755 3.92-3.92 3.92zM69.6 69.6h-7.84V53.92c0-2.165-1.755-3.92-3.92-3.92s-3.92 1.755-3.92 3.92V69.6h-7.84V42.16h7.84v4.868c1.617-2.22 4.09-4.868 6.86-4.868 4.872 0 8.82 4.388 8.82 9.8V69.6z" fill="#fff"/></svg>
