<svg class="custom-icon" xmlns="http://www.w3.org/2000/svg" viewBox="0 0 100 100" style="height:100px;width:100px"><path class="inner-shape" d="M50 18.64c-17.32 0-31.36 14.04-31.36 31.36S32.68 81.36 50 81.36 81.36 67.32 81.36 50 67.32 18.64 50 18.64zM34.32 34.32h31.36c.56 0 1.103.12 1.6.347L50 54.827l-17.28-20.16c.497-.227 1.04-.348 1.6-.347zM30.4 61.76V38.24c0-.082.003-.164.01-.245l11.493 13.41-11.367 11.368c-.09-.327-.135-.667-.136-1.013zm35.28 3.92H34.32c-.346 0-.686-.047-1.013-.136L44.46 54.39 50 60.852l5.538-6.462 11.154 11.155c-.326.088-.666.135-1.012.135zm3.92-3.92c0 .346-.047.686-.135 1.013L58.097 51.405l11.495-13.41c.005.08.01.163.01.245L69.6 61.76z" fill="#fff"/></svg>