<svg class="custom-icon" xmlns="http://www.w3.org/2000/svg" viewBox="0 0 100 100" style="height:100px;width:100px"><path class="inner-shape" d="M66.07 38.39c5.47 0 9.9-4.425 9.9-9.876 0-5.453-4.43-9.874-9.9-9.874-5.47 0-9.902 4.42-9.902 9.875 0 5.45 4.433 9.876 9.9 9.876zM79.522 55.29c0-8.393-6.024-15.2-13.456-15.2-5.188 0-9.684 3.324-11.93 8.184-1.222-4.89-5.194-8.477-9.914-8.477-4.267 0-7.928 2.927-9.497 7.1-.72-3.643-3.59-6.37-7.034-6.37-3.984 0-7.216 3.65-7.216 8.15 0 .065.014.123.015.186h-.012v13.802h13.437v8.758h18.7v9.94h26.91V55.63h-.03c.002-.118.028-.223.028-.342zM44.225 38.273c4.19 0 7.587-3.39 7.587-7.57s-3.396-7.566-7.587-7.566-7.588 3.387-7.588 7.566c0 4.18 3.396 7.57 7.588 7.57zm-16.53.904c2.934 0 5.31-2.376 5.31-5.3 0-2.926-2.376-5.298-5.31-5.298-2.933 0-5.31 2.37-5.31 5.296 0 2.925 2.377 5.3 5.31 5.3z" fill="#fff"/></svg>