<svg class="custom-icon" xmlns="http://www.w3.org/2000/svg" viewBox="0 0 100 100" style="height:100px;width:100px"><path class="inner-shape" d="M59.46 37.523c3.273 1.287 6.476-.392 6.71-3.535.55-5.89-9.717-5.916-8.63.47-1.957 1.218-3.67 2.675-5.752 3.77.556-5.972.08-12.958.24-19.324-.86-.492-2.592-.123-3.835-.238v10.606c-1.462.314-3.712-2.617-5.753-3.3 1.456-5.833-8.583-6.9-8.63-.94.13 3.28 3.2 5.267 6.472 4.005 2.845 1.603 5.465 3.424 7.91 5.42v11.55c-2.177-1.003-3.74-2.61-5.752-3.77 1.453-5.65-8.526-6.67-8.63-.944-.065 3.5 3.316 5.397 6.712 4.006 2.452 1.908 5.193 3.534 7.67 5.42v12.493c-2.08-1.095-3.795-2.556-5.752-3.77.505-2.38-1.245-4.38-3.356-4.95-3.387-.19-4.84 1.52-5.273 4.24.066 3.3 3.392 5.155 6.712 3.77 2.432 1.932 5.23 3.502 7.67 5.42V81.36h3.837v-4.714c2.124-2.31 5.24-3.644 7.67-5.655.822.425 2.07.958 3.115.47 1.947-.52 3.05-1.87 3.355-4.005-.2-2.63-1.725-3.96-4.074-4.48-3.044.23-4.694 1.83-4.554 5.188-1.977.807-3.797 3.02-5.513 3.298V59.443c2.152-2.284 5.233-3.654 7.67-5.657.822.424 2.07.957 3.115.47 1.947-.52 3.05-1.87 3.355-4.005-.2-2.632-1.725-3.96-4.074-4.48-3.044.23-4.694 1.83-4.554 5.187-1.977.807-3.797 3.022-5.513 3.3v-11.08c1.944-2.405 5.1-3.625 7.43-5.654z" fill="#fff"/></svg>