<svg class="custom-icon" xmlns="http://www.w3.org/2000/svg" viewBox="0 0 100 100" style="height:100px;width:100px"><path class="inner-shape" d="M72.58 26.65c1.573.77 2.944 1.867 3.95 3.214 2.115 2.836 2.71 6.7 1.766 11.483-.954 4.84-3.088 8.926-6.196 11.885-.568.594-1.177 1.148-1.826 1.66-3.33 2.62-7.534 4.006-12.16 4.006H43.412L39.458 77.44h-8.11l.617-2.836h2.825l3.954-18.542h11.53c11.042 0 20.27-6.803 22.74-18.37 2.802-13.098-6.59-19.052-14.663-19.052H30.834L18.64 74.604h9.312L26.48 81.36h16.15l3.954-18.542h11.53c11.042 0 20.27-6.803 22.74-18.37 2.066-9.66-2.498-15.432-8.275-17.798zm-28.07 3.388h7.91c3.955 0 6.59 3.4 5.437 7.654-.988 4.252-5.107 7.655-9.227 7.655h-7.58l3.46-15.31z" fill="#fff"/></svg>