<svg class="custom-icon" xmlns="http://www.w3.org/2000/svg" viewBox="0 0 100 100" style="height:100px;width:100px"><path class="inner-shape" d="M61.76 42.788L39.437 20.466C42.74 19.286 46.294 18.64 50 18.64c4.16 0 8.128.812 11.76 2.282v21.866zm3.92 18.972V22.836C75.053 28.26 81.36 38.393 81.36 50c0 4.16-.812 8.128-2.282 11.76H65.68zm-27.44 3.92h38.924C71.74 75.053 61.607 81.36 50 81.36c-4.16 0-8.128-.812-11.76-2.282V65.68zm6.508-33.32l-25.19 25.19c-.6-2.418-.918-4.946-.918-7.55 0-11.844 6.568-22.154 16.26-27.49l9.848 9.85zM34.32 49.372v27.792c-5.794-3.352-10.415-8.505-13.1-14.693l13.1-13.098z" fill="#fff"/></svg>