<svg class="custom-icon" xmlns="http://www.w3.org/2000/svg" viewBox="0 0 100 100" style="height:100px;width:100px"><path class="inner-shape" d="M50 18.953c-17.318 0-31.36 13.9-31.36 31.047 0 12.713 7.722 23.635 18.77 28.436-.087-2.168-.014-4.77.547-7.13.603-2.52 4.035-16.916 4.035-16.916s-1.002-1.983-1.002-4.913c0-4.6 2.694-8.037 6.05-8.037 2.85 0 4.23 2.12 4.23 4.66 0 2.84-1.83 7.087-2.77 11.02-.786 3.292 1.668 5.978 4.95 5.978 5.942 0 9.943-7.555 9.943-16.506 0-6.805-4.63-11.898-13.05-11.898-9.512 0-15.44 7.024-15.44 14.87 0 2.704.806 4.61 2.07 6.088.578.68.66.953.45 1.73-.15.573-.497 1.948-.64 2.493-.21.787-.853 1.068-1.57.777-4.38-1.77-6.422-6.52-6.422-11.862 0-8.82 7.514-19.394 22.415-19.394 11.973 0 19.854 8.578 19.854 17.785 0 12.18-6.84 21.28-16.923 21.28-3.385 0-6.57-1.812-7.66-3.87 0 0-1.822 7.153-2.208 8.534-.666 2.393-1.967 4.786-3.158 6.65 2.82.824 5.8 1.273 8.888 1.273 17.318 0 31.36-13.9 31.36-31.047S67.318 18.953 50 18.953z" fill="#fff"/></svg>