<svg class="custom-icon" xmlns="http://www.w3.org/2000/svg" viewBox="0 0 100 100" style="height:100px;width:100px"><path class="inner-shape" d="M34.32 53.92c0-2.165 1.755-3.92 3.92-3.92s3.92 1.755 3.92 3.92-1.755 3.92-3.92 3.92-3.92-1.755-3.92-3.92zm23.52 0c0-2.165 1.755-3.92 3.92-3.92s3.92 1.755 3.92 3.92-1.755 3.92-3.92 3.92-3.92-1.755-3.92-3.92zm.19 8.378c1.01-.796 2.474-.622 3.27.387s.62 2.473-.39 3.27C58.1 68.17 53.817 69.6 50 69.6s-8.1-1.43-10.912-3.645c-1.01-.797-1.183-2.26-.388-3.27.796-1.01 2.26-1.183 3.27-.387 1.617 1.274 4.82 2.647 8.03 2.647s6.412-1.373 8.03-2.647zM81.36 46.08c0-4.33-3.51-7.84-7.84-7.84-2.947 0-5.512 1.628-6.85 4.03-4.03-2.203-8.94-3.627-14.29-3.956l4.68-10.506 8.953 2.585c.806 2.287 2.985 3.927 5.547 3.927 3.247 0 5.88-2.632 5.88-5.88s-2.632-5.88-5.88-5.88c-2.24 0-4.187 1.25-5.18 3.093l-9.977-2.88c-1.117-.322-2.3.228-2.772 1.29l-6.355 14.272c-5.215.368-10 1.778-13.943 3.935-1.338-2.404-3.905-4.03-6.852-4.03-4.33 0-7.84 3.51-7.84 7.84 0 3.204 1.924 5.956 4.678 7.172-.494 1.472-.758 3.008-.758 4.588 0 10.825 12.285 19.6 27.44 19.6 15.155 0 27.44-8.775 27.44-19.6 0-1.58-.264-3.116-.758-4.587 2.755-1.215 4.678-3.97 4.678-7.173zm-9.8-19.845c1.218 0 2.206.987 2.206 2.205s-.988 2.206-2.206 2.206-2.205-.988-2.205-2.206.987-2.205 2.205-2.205zm-49 19.845c0-2.16 1.76-3.92 3.92-3.92 1.562 0 2.914.92 3.543 2.244-2.05 1.554-3.747 3.346-5.002 5.314-1.44-.58-2.46-1.992-2.46-3.638zM50 72.785c-12.584 0-22.785-6.692-22.785-14.945S37.415 42.895 50 42.895s22.785 6.69 22.785 14.945S62.585 72.785 50 72.785zm24.98-23.068c-1.257-1.967-2.955-3.76-5.003-5.313.63-1.326 1.98-2.245 3.543-2.245 2.16 0 3.92 1.758 3.92 3.92 0 1.645-1.02 3.057-2.46 3.637z" fill="#fff"/></svg>