<svg class="custom-icon" xmlns="http://www.w3.org/2000/svg" viewBox="0 0 100 100" style="height:100px;width:100px"><path class="inner-shape" d="M26.988 64.634c-4.605 0-8.348 3.757-8.348 8.335 0 4.602 3.743 8.317 8.348 8.317 4.623 0 8.36-3.715 8.36-8.318 0-4.58-3.737-8.336-8.36-8.336zM18.65 39.95v12.022c7.826 0 15.187 3.06 20.73 8.606 5.536 5.532 8.592 12.926 8.592 20.782h12.074c0-22.835-18.576-41.408-41.396-41.41zm.014-21.31v12.026c27.916 0 50.638 22.745 50.638 50.694H81.36c0-34.573-28.13-62.72-62.696-62.72z" fill="#fff"/></svg>