<svg class="custom-icon" xmlns="http://www.w3.org/2000/svg" viewBox="0 0 100 100" style="height:100px;width:100px"><path class="inner-shape" d="M50 22.56c-1.474 0-2.922.11-4.338.32-.018-.048-.038-.095-.06-.14.786-.614 1.197-1.46 1.02-2.302-.23-1.075-1.373-1.798-2.846-1.798-.317 0-.64.035-.96.102-1.848.393-3.07 1.753-2.786 3.097.174.817.876 1.428 1.848 1.677-.002.06-.002.12.002.18C29.592 27.22 20.6 38.54 20.6 51.96c0 16.237 13.163 29.4 29.4 29.4s29.4-13.163 29.4-29.4-13.163-29.4-29.4-29.4zm-9.01-.925c-.167-.78.764-1.665 2.03-1.934.253-.053.508-.08.756-.08.982 0 1.757.42 1.885 1.023.1.46-.187.956-.696 1.34-.43-.303-.98-.435-1.537-.317-.554.118-1 .46-1.27.91-.625-.15-1.074-.495-1.168-.94zm24.774 46.09c-2.693 2.693-5.953 4.61-9.512 5.644l-2.597-4.214-.658 4.898c-.985.132-1.986.2-2.997.2-5.955 0-11.554-2.32-15.764-6.53-2.694-2.694-4.61-5.954-5.645-9.513l4.214-2.596-4.898-.658c-.132-.985-.2-1.986-.2-2.997 0-5.956 2.318-11.555 6.53-15.765 2.693-2.694 5.954-4.61 9.513-5.645l2.596 4.212.658-4.898c.986-.132 1.986-.2 2.997-.2 5.956 0 11.555 2.32 15.766 6.53 2.693 2.694 4.61 5.954 5.644 9.514l-4.213 2.596 4.898.658c.132.986.2 1.986.2 2.997 0 5.954-2.32 11.553-6.53 15.764zm-.52-31.01l-12.063 9.17c-.896-.47-1.89-.74-2.903-.78L47.15 38.54l-.19 7.268c-.813.4-1.538.96-2.136 1.65l-3.865-1.37 2.822 2.974c-.388.828-.604 1.716-.64 2.622l-6.562 3.13 7.273.187.07.14-9.168 12.065 12.064-9.17c.896.47 1.89.74 2.903.78l3.128 6.565.19-7.267c.812-.4 1.537-.96 2.135-1.65l3.864 1.37-2.824-2.974c.39-.83.605-1.718.64-2.624l6.563-3.128-7.273-.188c-.023-.047-.048-.093-.072-.14l9.17-12.064zm-15.238 9.153zm-1.228.34c.412-.087.823-.13 1.228-.13.254 0 .506.017.754.05h.005c.535.07 1.05.214 1.54.422l-4.383 3.33-3.33 4.383c-.147-.342-.263-.703-.343-1.082-.677-3.174 1.35-6.297 4.528-6.97zm4.292 10.767c-.554.34-1.175.594-1.847.737-.412.088-.824.13-1.228.13-.254 0-.506-.017-.754-.05h-.004c-.535-.07-1.05-.214-1.54-.422l4.383-3.33 3.33-4.383c.146.342.262.704.342 1.082.533 2.502-.615 4.97-2.682 6.235z" fill="#fff"/></svg>