<svg class="custom-icon" xmlns="http://www.w3.org/2000/svg" viewBox="0 0 100 100" style="height:100px;width:100px"><path class="inner-shape" d="M78.378 54.038c.172-1.273.27-2.57.27-3.887 0-15.82-12.895-28.648-28.8-28.648-1.58 0-3.13.13-4.638.378-2.704-1.762-5.922-2.79-9.385-2.79-9.496 0-17.185 7.694-17.185 17.188 0 3.454 1.017 6.663 2.767 9.357-.235 1.472-.356 2.98-.356 4.515 0 15.824 12.89 28.65 28.798 28.65 1.796 0 3.544-.174 5.243-.48 2.64 1.636 5.75 2.59 9.084 2.59 9.494 0 17.186-7.697 17.186-17.19 0-3.586-1.097-6.923-2.982-9.682zM52.54 71.265c-9.15.476-13.433-1.55-17.356-5.23-4.38-4.112-2.62-8.802.948-9.04 3.568-.238 5.71 4.044 7.614 5.235 1.9 1.187 9.137 3.89 12.96-.478 4.162-4.757-2.768-7.218-7.848-7.963-7.252-1.075-16.41-4.998-15.696-12.73.713-7.726 6.564-11.688 12.722-12.247 7.85-.712 12.96 1.19 17 4.64 4.674 3.983 2.146 8.438-.832 8.796-2.966.355-6.297-6.555-12.837-6.66-6.74-.105-11.296 7.015-2.974 9.04 8.326 2.02 17.242 2.852 20.453 10.462 3.212 7.612-4.993 15.695-14.152 16.173z" fill="#fff"/></svg>