<svg class="custom-icon" xmlns="http://www.w3.org/2000/svg" viewBox="0 0 100 100" style="height:100px;width:100px"><path class="inner-shape" d="M29.122 49.615c-.227 0-.408.18-.422.42l-.52 6.432.52 6.765c.015.238.195.42.422.42.223 0 .404-.182.42-.42l.593-6.765-.592-6.436c-.017-.237-.197-.415-.42-.415zm5.07-6.533c-.285 0-.517.233-.53.53l-.458 12.86.46 6.722c.012.293.243.526.527.526.283 0 .516-.233.53-.53l.518-6.72-.52-12.86c-.013-.297-.244-.528-.527-.528zm-7.574 6.084c-.195 0-.354.158-.37.366l-.553 6.936.553 6.71c.016.207.174.364.37.364.19 0 .35-.157.368-.364l.628-6.71-.628-6.937c-.018-.207-.176-.364-.368-.364zm5.027-3.638c-.252 0-.462.21-.473.475l-.49 10.467.49 6.764c.013.264.22.473.473.473s.46-.21.476-.474v.002l.556-6.765-.556-10.467c-.014-.266-.223-.475-.475-.475zm-7.512 3.877c-.165 0-.297.13-.314.31l-.587 6.75.586 6.504c.016.18.147.31.313.31.163 0 .296-.13.314-.31l.665-6.504-.664-6.75c-.02-.18-.152-.31-.315-.31zM21.67 50.52c-.134 0-.244.108-.263.256l-.616 5.69.617 5.56c.018.15.128.258.262.258.13 0 .238-.105.26-.255l.7-5.565-.7-5.69c-.022-.15-.13-.255-.26-.255zm-2.32 2.178c-.13 0-.234.102-.252.25l-.458 3.517.46 3.458c.016.146.12.248.25.248.128 0 .23-.1.252-.246l.543-3.46-.543-3.52c-.02-.144-.125-.246-.252-.246zm30.5-14.628c-.462 0-.843.384-.85.857l-.348 17.552.35 6.37c.005.465.386.85.85.85.462 0 .84-.385.848-.857v.008l.378-6.37-.378-17.555c-.007-.47-.386-.855-.85-.855zm23.797 10.1c-1.058 0-2.067.217-2.985.605-.614-7.023-6.445-12.53-13.556-12.53-1.74 0-3.436.345-4.934.93-.583.228-.737.463-.744.916v24.73c.008.477.373.875.834.92.02.003 21.246.015 21.383.015 4.26 0 7.715-3.488 7.715-7.793 0-4.302-3.453-7.792-7.713-7.792zm-26.43-8.588c-.432 0-.79.36-.795.8l-.3 16.088.3 6.47c.006.438.365.797.796.797.43 0 .788-.36.795-.8l.336-6.46-.337-16.094c-.007-.44-.364-.8-.795-.8zm-10.46 2.374c-.317 0-.573.256-.583.583l-.427 13.932.427 6.652c.01.326.265.58.582.58.313 0 .57-.254.582-.58l.48-6.652-.48-13.934c-.013-.327-.268-.582-.582-.582zm2.584-.526c-.345 0-.624.28-.633.64l-.396 14.403.397 6.612c.01.355.29.635.634.635.347 0 .624-.28.636-.636v-.002l.446-6.608-.446-14.405c-.01-.36-.29-.64-.635-.64zm5.232.775c-.408 0-.735.328-.744.747l-.33 13.524.33 6.508c.01.413.335.74.744.74.407 0 .732-.326.742-.745v.004l.372-6.507-.37-13.526c-.012-.418-.337-.745-.744-.745zm-2.626-.458c-.377 0-.68.304-.69.69l-.363 14.04.365 6.546c.008.384.31.69.69.69.374 0 .677-.306.688-.694v.005l.408-6.55-.41-14.037c-.01-.388-.313-.69-.688-.69z" fill="#fff"/></svg>