<svg class="custom-icon" xmlns="http://www.w3.org/2000/svg" viewBox="0 0 100 100" style="height:100px;width:100px"><path class="inner-shape" d="M57.883 72.97l-24.755.01-.002-5.286 24.754-.012.003 5.288zM74.61 43.028L70.376 18.64l-5.21.904 4.234 24.39 5.21-.906zM58.48 60.904l-24.65-2.272-.485 5.266 24.65 2.27.484-5.264zm1.625-6.9L36.2 47.578l-1.374 5.106 23.906 6.426 1.373-5.106zm3.12-6.047L41.905 35.38l-2.688 4.554L60.54 52.51l2.685-4.553zm5.228-3.704l-13.947-20.45-4.368 2.977 13.947 20.45 4.368-2.977zm-6.367 11.325v21.614H29.62V55.578h-4.23V81.34h.042c0 .02 1.234.02 1.234.02h39.607v-.02c.042 0 .042-1.235.042-1.235V55.578h-4.23z" fill="#fff"/></svg>