<svg class="custom-icon" xmlns="http://www.w3.org/2000/svg" viewBox="0 0 100 100" style="height:100px;width:100px"><path class="inner-shape" d="M50 18.64c-17.316 0-31.354 14.04-31.354 31.36S32.684 81.36 50 81.36 81.354 67.32 81.354 50 67.316 18.64 50 18.64zm0 23.812c-1.05 0-1.9.85-1.9 1.9l-.008 11.444c-.062 4.376-3.62 7.906-8.01 7.906-4.43 0-8.022-3.59-8.022-8.02v-4.978h6.138v4.91c0 1.05.85 1.9 1.9 1.9s1.898-.85 1.898-1.9V44.03c.154-4.294 3.672-7.73 8.004-7.73 4.347 0 7.875 3.46 8.004 7.778v2.536l-3.655 1.09-2.45-1.14v-2.21c0-1.048-.85-1.9-1.9-1.9zm17.94 13.23c0 4.43-3.59 8.02-8.02 8.02-4.406 0-7.983-3.552-8.02-7.95v-5l2.45 1.142 3.654-1.09v5.04c0 1.05.85 1.9 1.9 1.9 1.048 0 1.898-.85 1.898-1.9v-5.14h6.138v4.977z" fill="#fff"/></svg>