<svg class="custom-icon" xmlns="http://www.w3.org/2000/svg" viewBox="0 0 100 100" style="height:100px;width:100px"><path class="inner-shape" d="M39.812 81.293h-14.57c-.59 0-.884-.15-.884-.677V19.394c0-.455.295-.754.885-.754h14.47c.59 0 .985.228.985.754v3.77c0 .528-.3.677-.886.677h-6.497c-.79 0-1.083.305-1.083.83v50.666c0 .526.294.756.984.756h6.496c.592 0 .986.223.986.673v3.85c0 .45-.298.678-.886.678M73.18 56.5c1.772-.528 2.46-.825 2.46-1.577V51.84c0-1.126-.786-1.2-2.263-1.652-3.938-1.353-6.596-3.46-6.596-7.142v-9.692c0-7.97-7.676-14.7-17.124-14.7H48.18c-.593 0-.984.222-.984.748v3.684c0 .526.293.75.884.75h1.18c5.61 0 9.55 4.477 9.55 8.914v11.573c0 3.61 2.558 6.615 6.595 8.42.296.15.39.375.39.524 0 .152-.094.302-.39.378-4.428 1.577-6.596 5.935-6.596 9.094v10.125c0 4.51-3.94 3.28-9.55 3.28h-1.18c-.59 0-.884.227-.884.752v3.683c0 .526.39.752.984.752h1.476c9.448 0 17.026.873 17.026-7.093V63.565c0-3.688 2.66-5.938 6.497-7.065M54.265 42.185c0-.856-.772-1.555-1.715-1.555h-3.86c-.944 0-1.714.698-1.714 1.554v3.495c0 .853.77 1.553 1.714 1.553h3.86c.944 0 1.716-.7 1.716-1.554v-3.496z" fill="#fff"/></svg>