<svg class="custom-icon" xmlns="http://www.w3.org/2000/svg" viewBox="0 0 100 100" style="height:100px;width:100px"><path class="inner-shape" d="M70.91 18.64H29.094c-5.75 0-10.455 4.705-10.455 10.455v41.81c0 5.754 4.705 10.455 10.454 10.455H70.91c5.75 0 10.45-4.7 10.45-10.454v-41.81c0-5.75-4.7-10.455-10.45-10.456zm-7.452 50.512c-1.847.87-3.524 1.482-5.023 1.834-1.5.348-3.12.524-4.863.524-1.98 0-3.147-.25-4.666-.746-1.52-.502-2.818-1.218-3.89-2.136-1.076-.926-1.818-1.91-2.233-2.952-.416-1.042-.622-2.553-.622-4.532V45.967h-5.88v-6.13c1.7-.55 3.672-1.342 4.882-2.372 1.215-1.034 2.187-2.27 2.92-3.717.736-1.443 1.24-3.284 1.517-5.516h6.154v10.01H61.76v7.726H51.754v11.098c0 2.51-.033 3.958.234 4.67.265.708.926 1.443 1.648 1.868.958.575 2.052.86 3.284.86 2.19 0 4.372-.71 6.537-2.135v6.825-.003z" fill="#fff"/></svg>