<svg class="custom-icon" xmlns="http://www.w3.org/2000/svg" viewBox="0 0 100 100"><path class="inner-shape" d="M81.36 30.434c-2.307 1.03-4.787 1.725-7.39 2.038 2.657-1.602 4.697-4.14 5.66-7.16-2.488 1.482-5.24 2.56-8.173 3.14-2.347-2.516-5.69-4.088-9.392-4.088-7.107 0-12.87 5.795-12.87 12.943 0 1.014.114 2.002.334 2.95-10.695-.54-20.177-5.693-26.524-13.524-1.107 1.912-1.742 4.135-1.742 6.507 0 4.49 2.272 8.453 5.725 10.774-2.11-.066-4.095-.65-5.83-1.618v.163c0 6.27 4.436 11.5 10.322 12.69-1.08.297-2.216.455-3.39.455-.83 0-1.635-.08-2.42-.232 1.637 5.14 6.39 8.884 12.02 8.988-4.404 3.473-9.953 5.542-15.982 5.542-1.04 0-2.063-.062-3.07-.18 5.695 3.672 12.46 5.815 19.725 5.815 23.67 0 36.612-19.723 36.612-36.827 0-.562-.013-1.12-.037-1.675 2.513-1.826 4.695-4.107 6.42-6.7z" fill="#fff"/></svg>
