<svg class="custom-icon" xmlns="http://www.w3.org/2000/svg" viewBox="0 0 100 100" style="height:100px;width:100px"><path class="inner-shape" d="M18.64 37.528l2.548 3.34s5.253-4.14 7.005-2.07c1.75 2.07 8.436 27.07 10.668 31.68 1.948 4.045 7.32 9.39 13.214 5.573 5.888-3.817 25.47-20.535 28.975-40.277 3.5-19.736-23.565-15.602-26.432 1.593 7.165-4.302 10.99 1.748 7.323 8.598-3.66 6.843-7.004 11.306-8.755 11.306-1.748 0-3.093-4.58-5.095-12.583-2.07-8.275-2.057-23.18-10.665-21.49-8.117 1.592-18.785 14.33-18.785 14.33z" fill="#fff"/></svg>