<svg class="custom-icon" xmlns="http://www.w3.org/2000/svg" viewBox="0 0 100 100" style="height:100px;width:100px"><path class="inner-shape" d="M26.48 50c0 9.066 5.41 16.902 13.256 20.615l-11.22-29.938c-1.304 2.848-2.035 6-2.036 9.322zm39.398-1.156c0-2.832-1.045-4.792-1.94-6.317-1.19-1.888-2.31-3.485-2.31-5.373 0-2.106 1.64-4.065 3.95-4.065.105 0 .204.01.305.017-4.184-3.734-9.76-6.015-15.883-6.015-8.218 0-15.446 4.107-19.65 10.326.55.017 1.07.027 1.512.027 2.46 0 6.27-.29 6.27-.29 1.266-.073 1.416 1.74.15 1.887 0 0-1.275.145-2.693.218l8.564 24.812 5.148-15.034-3.664-9.778c-1.267-.073-2.467-.218-2.467-.218-1.267-.073-1.118-1.96.15-1.888 0 0 3.883.29 6.194.29 2.46 0 6.27-.29 6.27-.29 1.268-.072 1.417 1.74.15 1.888 0 0-1.277.145-2.693.218l8.5 24.624 2.348-7.634c1.015-3.17 1.79-5.446 1.79-7.406zm-15.465 3.16l-7.058 19.97c2.108.605 4.336.934 6.645.934 2.74 0 5.366-.46 7.81-1.3-.062-.097-.12-.202-.168-.315l-7.23-19.29zM70.64 39.01c.1.73.157 1.512.157 2.356 0 2.323-.446 4.937-1.788 8.204L61.824 69.8C68.817 65.828 73.52 58.45 73.52 50c0-3.983-1.046-7.727-2.88-10.99zM50 18.64c-17.32 0-31.36 14.04-31.36 31.36S32.68 81.36 50 81.36 81.36 67.32 81.36 50 67.32 18.64 50 18.64zm0 58.8c-15.155 0-27.44-12.285-27.44-27.44S34.845 22.56 50 22.56 77.44 34.845 77.44 50 65.155 77.44 50 77.44z" fill="#fff"/></svg>