<svg class="custom-icon" xmlns="http://www.w3.org/2000/svg" viewBox="0 0 100 100" style="height:100px;width:100px"><path class="inner-shape" d="M41.857 54.786L29.642 47.6c-.013-.008-.027-.01-.044-.01l.005-.01-.023.014c-.044.01-.096.043-.153.096L19.28 54.07l4.79 2.888c.007.024.017.044.035.054l7.04 4.14c-.034.072-.055.15-.055.234V81.36l10.347-5.47c.112-.02.212-.074.288-.152l.018-.01-.008-.002c.086-.095.14-.22.14-.36v-13.98c0-.04-.004-.08-.013-.12l.013-6.225c.036-.125.033-.224-.018-.254zm38.862 20.15l-7.364-4.474-16.3-10.093V18.64l-10.652 5.63.04.015c-.18.086-.306.267-.306.48v41.28c0 .267.195.485.45.525l-.14.01 4.067 2.54c.015.035.037.064.065.082l6.994 4.33 2.013 1.258-.01-.018 9.763 6.046c.074.046.18.022.285-.048l-.012.134 11.106-5.968z" fill="#fff"/></svg>