<svg class="custom-icon" xmlns="http://www.w3.org/2000/svg" viewBox="0 0 100 100" style="height:100px;width:100px"><path class="inner-shape" d="M45.1 55.38c.045-1.635-1.96-2.618-1.96-2.618l-13.27-6.708s-1.967-.81-2.922-.245c-.732.43-1.38 1.213-1.443 1.905l-.864 10.647s-.128 1.844.35 2.684c.676 1.19 2.902.36 2.902.36l15.493-3.425c.6-.404 1.656-.44 1.715-2.6zm.17-9.487s1.266 1.31 2.878.912c1.752-.43 2.03-2.977 2.03-2.977l-.12-21.184s-.263-2.613-1.437-3.322c-1.84-1.117-2.385-.535-2.912-.456l-12.345 4.59s-1.21.4-1.84 1.41c-.898 1.43.915 3.525.915 3.525l12.83 17.503zm12.77 6.987l14.87-4.35s2.026-.824 2.316-1.923c.284-1.1-.334-2.427-.334-2.427l-7.106-8.376s-.615-1.058-1.894-1.165c-1.41-.12-2.276 1.585-2.276 1.585l-8.403 13.23s-.742 1.318-.04 2.508c.764 1.293 2.867.917 2.867.917zm-9.088 8.244c-1.33-.684-2.92.73-2.92.73l-10.374 11.43s-1.294 1.746-.966 2.82c.31 1.006.824 1.505 1.55 1.857l10.418 3.292s1.263.263 2.22-.015c1.357-.393 1.107-2.52 1.107-2.52l.236-15.473s-.054-1.49-1.27-2.12zm24.314 1.74l-14.904-4.79s-1.46-.387-2.432.595c-1.058 1.066-.164 3.008-.164 3.008l7.962 13.305s1.308 1.754 2.44 1.754c1.138 0 2.262-.935 2.262-.935l6.295-9.004s.635-1.137.65-2.13c.023-1.416-2.11-1.804-2.11-1.804z" fill="#fff"/></svg>