<svg class="custom-icon" xmlns="http://www.w3.org/2000/svg" viewBox="0 0 100 100" style="height:100px;width:100px"><path class="inner-shape" d="M80.262 34.87c-.64-3.426-3.492-5.982-6.768-6.297-7.82-.502-15.672-.91-23.507-.914-7.837-.006-15.657.393-23.48.887-3.288.318-6.14 2.86-6.777 6.3-.727 4.95-1.09 9.95-1.09 14.947s.364 9.996 1.09 14.947c.637 3.44 3.49 6.287 6.777 6.602 7.825.495 15.64 1 23.48 1 7.833 0 15.69-.44 23.507-.947 3.276-.32 6.128-3.25 6.768-6.674.733-4.942 1.098-9.935 1.098-14.927 0-4.99-.366-9.98-1.098-14.923zM42.89 58.798V40.574l16.972 9.112-16.972 9.112z" fill="#fff"/></svg>