<svg xmlns:svg="http://www.w3.org/2000/svg" xmlns="http://www.w3.org/2000/svg" xml:space="preserve" viewBox="0 0 121.035 21.816" version="1.1"><style>.s0{fill:#000;}.s1{fill:#fff;stroke-width:4.79716682;stroke:#000;}.s2{fill:#fff;stroke-width:4.79699993;stroke:#000;}.s3{fill:#fff;stroke-width:0.15075858;stroke:#000;}.s4{fill:none;stroke-width:0.15075858;stroke:#000;}.s5{fill:#fff;font-family:sans-serif;font-size:10px;letter-spacing:0px;line-height:125%;word-spacing:0px;}</style><g transform="translate(-1.6248993,-0.42402405)"><g transform="matrix(-0.56166491,0.82736481,-0.82736481,-0.56166491,122.04884,-34.303404)"><g transform="matrix(0.05278462,0.01284887,-0.01284887,0.05278462,62.473875,14.776695)"><path d="m370.3 26.1-0.1 0 0-0.3c-0.1-7-1.7-14-4.9-20.9l-0.6-1.4-23.8 0-0.8-2.1-29.3-0.1 0.1 0.3L307.6 1.3 13.4 1.1 13.1 2.1 0 2.6-0.6 4.2c-0.2 0.7-0.6 2-1 3.8l-47.6 9.4-0.3 0.2c-0.9 0.5-2.3 1.9-2.8 5.8l-0.2 0 0 2.4-0.1 2.1 0.1 0c0.2 2.8 0.8 4.5 2.1 5.4 0.5 0.4 1.2 0.6 1.8 0.6 0.5 0.1 37.1 7.4 47.8 9.5 0.5 1.6 1 3.1 1.6 4.6l0.6 1.6 11.9 0 0.2 1 31.6 0-0.1-0.2 3.2 0.2 292.1 0.2 1.7-2.7 22.8-0.4 0.7-1.3c1.2-2.3 4.1-8.6 4.5-17.7l0-0.2 0.1 0 0-1.1 0-1.2z" fill="#000"/></g><path d="m61.955 16.149c0.069-0.352 0.183-0.638 0.277-0.838l-2.566-0.116c0 0-0.084 0.024-0.156 0.275 0.615 0.138 2.036 0.479 2.44 0.678zm-2.457-0.632c0 0-0.001 0.005-0.001 0.005-0.072 0.296 0.019 0.29 0.019 0.29l2.367 1.096c-0.007-0.248 0.017-0.482 0.056-0.691-0.368-0.05-1.656-0.409-2.441-0.7zm3.141 1.223c0.033-0.227 0.073-0.485 0.135-0.739 0.049-0.201 0.107-0.393 0.184-0.57 0.038-0.086 0.075-0.172 0.121-0.245-0.016-0.004-0.037-0.009-0.058-0.014-0.016-0.004-0.037-0.009-0.053-0.013-0.165-0.035-0.416-0.084-0.463-0.096-0.027 0.044-0.077 0.132-0.139 0.251-0.079 0.165-0.179 0.392-0.247 0.672 0.047-0.011 0.138 0.006 0.232 0.034 0.131 0.037 0.271 0.105 0.363 0.184 0.004 0.007 0.009 0.008 0.013 0.014 0 0-0.005-0.001-0.017 0.001-0.055-0.002-0.237-0.013-0.396-0.052-0.095-0.023-0.177-0.054-0.215-0.103-0.064 0.264-0.099 0.569-0.091 0.9 0.002 0.107 0.013 0.221 0.03 0.337l0.533 0.13c0.004-0.061 0.007-0.144 0.021-0.247 0.008-0.127 0.023-0.279 0.049-0.452zm17.774 3.93c0 0 0 0 0 0-0.004 0.016-0.006 0.026-0.01 0.042-0.012 0.048-0.018 0.096-0.031 0.149-0.01 0.042-0.022 0.09-0.037 0.131-0.037 0.131-0.089 0.252-0.151 0.366-0.044 0.09-0.098 0.172-0.161 0.246 0.021 0.005 0.058 0.014 0.095 0.023 0.016 0.004 0.037 0.009 0.058 0.014 0.016 0.004 0.037 0.009 0.058 0.014 0.302 0.068 0.785 0.174 0.843 0.188 0.077-0.087 0.302-0.368 0.435-0.822-0.416-0.107-0.812-0.226-1.047-0.316-0.02-0.01-0.036-0.014-0.055-0.025zm0.009-0.082c0.005 0.001 0.005 0.001 0.011 0.003 0.016 0.004 0.037 0.009 0.059 0.009 0.235 0.046 0.629 0.148 1.064 0.27 0.069-0.307 0.093-0.682 0.008-1.111l-1.098-0.267c0.01 0.142 0.024 0.408 0.003 0.722-0.007 0.121-0.021 0.247-0.041 0.376z" fill="#f00"/><path d="m63.231 15.164-0.017 0.024c-0.442 0.714-0.528 2.214-0.534 2.33l1.309 0.319c-0.147-0.405-0.235-0.873-0.118-1.354 0.118-0.486 0.396-0.798 0.705-0.991l0 0-1.346-0.328zm1.99 0.484c-0.313 0.069-0.813 0.283-0.971 0.932-0.117 0.48 0.03 0.98 0.219 1.373l13.389 3.27c0.313-0.069 0.807-0.284 0.964-0.928 0.118-0.486-0.034-0.987-0.223-1.379l0 0-13.378-3.268zm13.859 3.385c0.147 0.405 0.239 0.88 0.123 1.355-0.118 0.486-0.401 0.797-0.705 0.991l1.251 0.305 0.08-0.076c0.636-0.639 0.469-2.178 0.467-2.195l0 0-0.014-0.082-1.202-0.298zm-6.955-1.425c1.494 0.364 4.27 1.246 4.092 1.98-0.177 0.728-3.053 0.23-4.547-0.134l0 0c-1.494-0.364-4.27-1.246-4.092-1.98 0.177-0.728 3.053-0.23 4.547 0.134zm-0.021 0.084c-2.08-0.506-4.303-0.723-4.43-0.2-0.127 0.523 1.945 1.357 4.02 1.862 2.08 0.506 4.303 0.723 4.43 0.2 0.131-0.516-1.945-1.357-4.02-1.862l0 0zm-0.019 0.079c2.48 0.609 4.049 1.399 3.96 1.763-0.089 0.364-1.845 0.345-4.331-0.26l0 0c-2.481-0.604-4.049-1.399-3.96-1.763 0.089-0.364 1.85-0.344 4.331 0.26zm-2.931-0.294c0 0-0.005-0.001-0.005-0.001 0 0-0.001 0.005-0.001 0.005 0.001-0.005 0.007-0.004 0.007-0.004zm5.566 2.009c0 0 0 0 0 0 0 0 0.005 0.001 0.005 0.001-0.005-0.001-0.005-0.001-0.005-0.001zm0 0c0 0 0 0 0 0 0 0 0 0 0 0 0 0 0 0 0 0zm0.005 0.001c0 0 0 0 0 0 0 0 0 0 0 0 0 0 0 0 0 0 0 0 0 0 0 0zm0 0.045c0 0 0 0 0 0 0 0 0 0 0 0 0 0 0 0 0 0 0 0 0 0 0 0zm0 0c0 0 0 0 0 0-0.001 0.005 0.003 0.012 0.005 0.024 0.001-0.005 0.001-0.005-0.004-0.007 0.001-0.005 0.001-0.005 0.001-0.005 0.001-0.005 0.001-0.005 0.001-0.005 0 0 0 0-0.005-0.001 0 0 0.001-0.005 0.001-0.005z" fill="#faa"/></g><g transform="translate(-0.875,0.125)"><g transform="matrix(-0.05397486,0.00616637,-0.00616637,-0.05397486,27.088163,3.9101946)"><path d="m370.3 26.1-0.1 0 0-0.3c-0.1-7-1.7-14-4.9-20.9l-0.6-1.4-23.8 0-0.8-2.1-29.3-0.1 0.1 0.3L307.6 1.3 13.4 1.1 13.1 2.1 0 2.6-0.6 4.2c-0.2 0.7-0.6 2-1 3.8l-47.6 9.4-0.3 0.2c-0.9 0.5-2.3 1.9-2.8 5.8l-0.2 0 0 2.4-0.1 2.1 0.1 0c0.2 2.8 0.8 4.5 2.1 5.4 0.5 0.4 1.2 0.6 1.8 0.6 0.5 0.1 37.1 7.4 47.8 9.5 0.5 1.6 1 3.1 1.6 4.6l0.6 1.6 11.9 0 0.2 1 31.6 0-0.1-0.2 3.2 0.2 292.1 0.2 1.7-2.7 22.8-0.4 0.7-1.3c1.2-2.3 4.1-8.6 4.5-17.7l0-0.2 0.1 0 0-1.1 0-1.2z" fill="#000"/></g><path d="m27.101 2.443c0.057 0.354 0.048 0.662 0.03 0.882l2.448-0.777c0 0 0.071-0.052 0.052-0.312-0.625 0.082-2.076 0.254-2.524 0.206zm2.524-0.256c0 0-0.001-0.005-0.001-0.005-0.035-0.302-0.118-0.265-0.118-0.265L26.907 1.705c0.092 0.23 0.151 0.458 0.186 0.668 0.363-0.08 1.695-0.188 2.532-0.185zm-3.37-0.063c0.047 0.224 0.099 0.481 0.128 0.74 0.023 0.205 0.035 0.406 0.025 0.599-0.006 0.094-0.011 0.187-0.029 0.271 0.016-0.002 0.038-0.004 0.059-0.007 0.016-0.002 0.038-0.004 0.054-0.006 0.167-0.025 0.419-0.064 0.468-0.07 0.011-0.05 0.027-0.151 0.044-0.284 0.017-0.182 0.033-0.43 0-0.716-0.041 0.027-0.132 0.042-0.23 0.048-0.136 0.01-0.29-0.005-0.404-0.047-0.006-0.005-0.011-0.004-0.017-0.009 0 0 0.005-0.001 0.016-0.007 0.053-0.017 0.227-0.07 0.389-0.088 0.097-0.011 0.185-0.01 0.238 0.022C26.964 2.3 26.892 2.002 26.769 1.694 26.731 1.594 26.681 1.491 26.625 1.388l-0.545 0.062c0.018 0.058 0.043 0.137 0.066 0.239 0.036 0.122 0.075 0.27 0.111 0.441zM8.218 4.573c0 0 0 0 0 0-0.002-0.016-0.003-0.027-0.005-0.043-0.006-0.049-0.016-0.097-0.023-0.151-0.005-0.043-0.01-0.092-0.01-0.136-0.01-0.136-0.003-0.268 0.015-0.395 0.01-0.1 0.032-0.195 0.066-0.286-0.022 0.003-0.059 0.007-0.097 0.011-0.016 0.002-0.038 0.004-0.059 0.007-0.016 0.002-0.038 0.004-0.059 0.007C7.738 3.628 7.248 3.694 7.188 3.701 7.146 3.81 7.032 4.151 7.064 4.623 7.491 4.58 7.904 4.554 8.156 4.559c0.022 0.003 0.038 0.001 0.061 0.004zm0.02 0.08c-0.005 0.001-0.005 0.001-0.011 0.001-0.016 0.002-0.038 0.004-0.059 0.012-0.236 0.038-0.642 0.079-1.092 0.114 0.041 0.312 0.148 0.672 0.376 1.045L8.576 5.697C8.517 5.567 8.412 5.322 8.323 5.02 8.288 4.904 8.258 4.782 8.232 4.654Z" fill="#aad400"/><path d="m26.244 3.809 0.008-0.028C26.42 2.957 25.982 1.52 25.948 1.409l-1.339 0.153c0.278 0.329 0.522 0.739 0.578 1.23 0.057 0.497-0.096 0.886-0.32 1.174l0 0 1.376-0.157zM24.209 4.041C24.479 3.868 24.874 3.495 24.798 2.831 24.742 2.34 24.431 1.921 24.118 1.618L10.423 3.172c-0.27 0.173-0.659 0.546-0.584 1.204 0.057 0.497 0.372 0.914 0.686 1.218l0 0 13.684-1.552zM10.034 5.649C9.756 5.32 9.506 4.906 9.451 4.42 9.394 3.924 9.552 3.534 9.77 3.246L8.491 3.393 8.442 3.491C8.066 4.311 8.754 5.697 8.762 5.713l0 0 0.041 0.072 1.231-0.135zm7.02-1.064c-1.527 0.175-4.438 0.305-4.524-0.446-0.085-0.745 2.786-1.27 4.313-1.444l0 0c1.527-0.175 4.438-0.305 4.524 0.446 0.085 0.745-2.786 1.27-4.313 1.444zm-0.01-0.086C19.17 4.256 21.331 3.692 21.27 3.157 21.209 2.623 18.976 2.556 16.855 2.798c-2.127 0.243-4.288 0.807-4.227 1.341 0.055 0.53 2.294 0.602 4.415 0.359l0 0zm-0.009-0.081C14.497 4.702 12.752 4.502 12.709 4.13 12.666 3.758 14.322 3.169 16.864 2.879l0 0c2.537-0.29 4.283-0.085 4.325 0.288 0.043 0.372-1.618 0.961-4.155 1.251zm2.852-0.736c0 0 0.005-0.001 0.005-0.001 0 0-0.001-0.005-0.001-0.005 0.001 0.005-0.005 0.006-0.005 0.006zm-5.918 0.036c0 0 0 0 0 0 0 0-0.005 0.001-0.005 0.001 0.005-0.001 0.005-0.001 0.005-0.001zm0 0c0 0 0 0 0 0 0 0 0 0 0 0 0 0 0 0 0 0zm-0.005 0.001c0 0 0 0 0 0 0 0 0 0 0 0 0 0 0 0 0 0 0 0 0 0 0 0zm-0.016-0.042c0 0 0 0 0 0 0 0 0 0 0 0 0 0 0 0 0 0 0 0 0 0 0 0zm0 0c0 0 0 0 0 0-0.001-0.005-0.007-0.01-0.013-0.02 0.001 0.005 0.001 0.005 0.006 0.005 0.001 0.005 0.001 0.005 0.001 0.005 0.001 0.005 0.001 0.005 0.001 0.005 0 0 0 0 0.005-0.001 0 0 0.001 0.005 0.001 0.005z" fill="#df5"/></g><g transform="translate(-0.875,0.125)"><g transform="matrix(0.05389369,0.00683957,-0.00683957,0.05389369,20.197048,15.820494)"><path d="m370.3 26.1-0.1 0 0-0.3c-0.1-7-1.7-14-4.9-20.9l-0.6-1.4-23.8 0-0.8-2.1-29.3-0.1 0.1 0.3L307.6 1.3 13.4 1.1 13.1 2.1 0 2.6-0.6 4.2c-0.2 0.7-0.6 2-1 3.8l-47.6 9.4-0.3 0.2c-0.9 0.5-2.3 1.9-2.8 5.8l-0.2 0 0 2.4-0.1 2.1 0.1 0c0.2 2.8 0.8 4.5 2.1 5.4 0.5 0.4 1.2 0.6 1.8 0.6 0.5 0.1 37.1 7.4 47.8 9.5 0.5 1.6 1 3.1 1.6 4.6l0.6 1.6 11.9 0 0.2 1 31.6 0-0.1-0.2 3.2 0.2 292.1 0.2 1.7-2.7 22.8-0.4 0.7-1.3c1.2-2.3 4.1-8.6 4.5-17.7l0-0.2 0.1 0 0-1.1 0-1.2z" fill="#000"/></g><path d="m19.836 17.242c0.029-0.358 0.11-0.654 0.181-0.864l-2.563 0.173c0 0-0.081 0.034-0.125 0.291 0.627 0.069 2.077 0.247 2.501 0.4zM17.323 16.891c0 0-0.001 0.005-0.001 0.005-0.038 0.302 0.051 0.286 0.051 0.286l2.475 0.823c-0.035-0.245-0.038-0.481-0.022-0.693-0.371-0.009-1.692-0.22-2.504-0.422zm3.258 0.863c0.007-0.229 0.018-0.491 0.051-0.749 0.026-0.205 0.062-0.403 0.118-0.587 0.028-0.09 0.056-0.179 0.093-0.257-0.016-0.002-0.038-0.005-0.059-0.007-0.016-0.002-0.038-0.005-0.054-0.007-0.168-0.016-0.422-0.037-0.471-0.043-0.022 0.046-0.062 0.14-0.11 0.265-0.06 0.173-0.134 0.41-0.17 0.696 0.046-0.016 0.138-0.01 0.234 0.008 0.134 0.022 0.281 0.074 0.382 0.142 0.005 0.006 0.01 0.007 0.015 0.013 0 0-0.005-0.001-0.017 0.003-0.055 0.004-0.237 0.014-0.399-0.007-0.097-0.012-0.182-0.034-0.226-0.078-0.034 0.269-0.035 0.576 0.011 0.905 0.014 0.106 0.038 0.218 0.067 0.332l0.544 0.069c-0.003-0.061-0.009-0.144-0.007-0.247-0.006-0.127-0.008-0.28-0.002-0.455zm18.103 1.909c0 0 0 0 0 0-0.002 0.016-0.003 0.027-0.005 0.043-0.006 0.049-0.007 0.098-0.014 0.152-0.005 0.043-0.012 0.092-0.022 0.134-0.022 0.134-0.06 0.261-0.109 0.381-0.034 0.094-0.078 0.182-0.132 0.263 0.022 0.003 0.059 0.008 0.097 0.012 0.016 0.002 0.038 0.005 0.059 0.008 0.016 0.002 0.038 0.005 0.059 0.008 0.308 0.034 0.8 0.085 0.859 0.093 0.067-0.096 0.259-0.4 0.34-0.866-0.425-0.059-0.832-0.133-1.076-0.197-0.021-0.008-0.037-0.01-0.058-0.018zm-0.001-0.082c0.005 0.001 0.005 0.001 0.011 0.001 0.016 0.002 0.038 0.005 0.06 0.002 0.239 0.019 0.642 0.076 1.087 0.149 0.034-0.313 0.016-0.688-0.117-1.105l-1.121-0.142c0.026 0.14 0.069 0.403 0.084 0.717 0.007 0.121 0.007 0.247 0.001 0.378z" fill="#fc0"/><path d="m20.993 16.12-0.014 0.026c-0.359 0.759-0.276 2.26-0.269 2.375l1.337 0.17c-0.192-0.386-0.331-0.842-0.269-1.332 0.063-0.496 0.303-0.838 0.59-1.064l0 0-1.374-0.174zm2.032 0.258c-0.303 0.104-0.776 0.373-0.86 1.035-0.062 0.49 0.14 0.971 0.372 1.34l13.671 1.746c0.303-0.104 0.77-0.373 0.854-1.031 0.063-0.496-0.144-0.977-0.377-1.346l0 0-13.661-1.745zm14.151 1.807c0.192 0.386 0.336 0.848 0.274 1.333-0.063 0.496-0.309 0.837-0.59 1.064l1.277 0.162 0.071-0.084c0.561-0.706 0.221-2.217 0.218-2.234l0 0-0.023-0.08-1.228-0.161zm-7.071-0.635c1.525 0.194 4.383 0.759 4.288 1.508-0.094 0.744-3.008 0.571-4.533 0.378l0 0c-1.525-0.194-4.383-0.759-4.288-1.508 0.094-0.744 3.008-0.571 4.533-0.378zm-0.011 0.086c-2.123-0.269-4.357-0.235-4.424 0.298-0.068 0.534 2.085 1.13 4.203 1.399 2.123 0.269 4.357 0.235 4.424-0.298 0.072-0.527-2.085-1.13-4.203-1.399l0 0zm-0.01 0.081c2.532 0.327 4.18 0.936 4.133 1.308-0.047 0.372-1.795 0.55-4.333 0.228l0 0c-2.533-0.321-4.18-0.936-4.133-1.308 0.047-0.372 1.8-0.549 4.333-0.228zm-2.945 0.037c0 0-0.005-0.001-0.005-0.001 0 0-0.001 0.005-0.001 0.005 0.001-0.005 0.006-0.005 0.006-0.005zm5.757 1.371c0 0 0 0 0 0 0 0 0.005 0.001 0.005 0.001-0.005-0.001-0.005-0.001-0.005-0.001zm0 0c0 0 0 0 0 0 0 0 0 0 0 0 0 0 0 0 0 0zm0.005 0.001c0 0 0 0 0 0 0 0 0 0 0 0 0 0 0 0 0 0 0 0 0 0 0 0zm0.005 0.044c0 0 0 0 0 0 0 0 0 0 0 0 0 0 0 0 0 0 0 0 0 0 0 0zm0 0c0 0 0 0 0 0-0.001 0.005 0.004 0.011 0.008 0.023 0.001-0.005 0.001-0.005-0.005-0.006 0.001-0.005 0.001-0.005 0.001-0.005 0.001-0.005 0.001-0.005 0.001-0.005 0 0 0 0-0.005-0.001 0 0 0.001-0.005 0.001-0.005z" fill="#ffe680"/></g><g transform="matrix(-0.97535504,0.22064119,-0.22064119,-0.97535504,215.45903,-12.205582)"><g transform="matrix(0.05278462,0.01284887,-0.01284887,0.05278462,99.995809,1.5163329)"><path d="m370.3 26.1-0.1 0 0-0.3c-0.1-7-1.7-14-4.9-20.9l-0.6-1.4-23.8 0-0.8-2.1-29.3-0.1 0.1 0.3L307.6 1.3 13.4 1.1 13.1 2.1 0 2.6-0.6 4.2c-0.2 0.7-0.6 2-1 3.8l-47.6 9.4-0.3 0.2c-0.9 0.5-2.3 1.9-2.8 5.8l-0.2 0 0 2.4-0.1 2.1 0.1 0c0.2 2.8 0.8 4.5 2.1 5.4 0.5 0.4 1.2 0.6 1.8 0.6 0.5 0.1 37.1 7.4 47.8 9.5 0.5 1.6 1 3.1 1.6 4.6l0.6 1.6 11.9 0 0.2 1 31.6 0-0.1-0.2 3.2 0.2 292.1 0.2 1.7-2.7 22.8-0.4 0.7-1.3c1.2-2.3 4.1-8.6 4.5-17.7l0-0.2 0.1 0 0-1.1 0-1.2z" fill="#000"/></g><path d="m99.477 2.889c0.069-0.352 0.183-0.638 0.277-0.838l-2.566-0.116c0 0-0.084 0.024-0.156 0.275 0.615 0.138 2.036 0.479 2.44 0.678zM97.02 2.257c0 0-0.001 0.005-0.001 0.005-0.072 0.296 0.019 0.29 0.019 0.29l2.367 1.096c-0.007-0.248 0.017-0.482 0.056-0.691-0.368-0.05-1.656-0.409-2.441-0.7zm3.141 1.223c0.033-0.227 0.073-0.485 0.135-0.739 0.049-0.201 0.107-0.393 0.184-0.57 0.038-0.086 0.075-0.172 0.121-0.245-0.016-0.004-0.037-0.009-0.058-0.014-0.016-0.004-0.037-0.009-0.053-0.013-0.165-0.035-0.416-0.084-0.463-0.096-0.027 0.044-0.077 0.132-0.139 0.251-0.079 0.165-0.179 0.392-0.247 0.672 0.047-0.011 0.138 0.006 0.232 0.034 0.131 0.037 0.271 0.105 0.363 0.184 0.004 0.007 0.009 0.008 0.013 0.014 0 0-0.005-0.001-0.017 0.001-0.055-0.002-0.237-0.013-0.396-0.052-0.095-0.023-0.177-0.054-0.215-0.103-0.064 0.264-0.099 0.569-0.091 0.9 0.002 0.107 0.013 0.221 0.03 0.337l0.533 0.13c0.004-0.061 0.007-0.144 0.021-0.247 0.008-0.127 0.023-0.279 0.049-0.452zm17.774 3.93c0 0 0 0 0 0-0.004 0.016-0.006 0.026-0.01 0.042-0.012 0.048-0.018 0.096-0.031 0.149-0.01 0.042-0.022 0.09-0.037 0.131-0.037 0.131-0.089 0.252-0.151 0.366-0.044 0.09-0.098 0.172-0.161 0.246 0.021 0.005 0.058 0.014 0.095 0.023 0.016 0.004 0.037 0.009 0.058 0.014 0.016 0.004 0.037 0.009 0.058 0.014 0.302 0.068 0.785 0.174 0.843 0.188 0.077-0.087 0.302-0.368 0.435-0.822-0.416-0.107-0.812-0.226-1.047-0.316-0.02-0.01-0.036-0.014-0.055-0.025zm0.009-0.082c0.005 0.001 0.005 0.001 0.011 0.003 0.016 0.004 0.037 0.009 0.059 0.009 0.235 0.046 0.629 0.148 1.064 0.27 0.069-0.307 0.093-0.682 0.008-1.111l-1.098-0.267c0.01 0.142 0.024 0.408 0.003 0.722-0.007 0.121-0.021 0.247-0.041 0.376z" fill="#f60"/><path d="m100.753 1.903-0.017 0.024c-0.442 0.714-0.528 2.214-0.534 2.33l1.309 0.319c-0.147-0.405-0.235-0.873-0.118-1.354 0.118-0.486 0.396-0.798 0.705-0.991l0 0-1.346-0.328zm1.99 0.484c-0.313 0.069-0.813 0.283-0.971 0.932-0.117 0.48 0.03 0.98 0.219 1.373l13.389 3.27c0.313-0.069 0.807-0.284 0.964-0.928 0.118-0.486-0.034-0.987-0.223-1.379l0 0-13.378-3.268zm13.859 3.385c0.147 0.405 0.239 0.88 0.123 1.355-0.118 0.486-0.401 0.797-0.705 0.991l1.251 0.305 0.08-0.076c0.636-0.639 0.469-2.178 0.467-2.195l0 0-0.014-0.082-1.202-0.298zm-6.955-1.425c1.494 0.364 4.27 1.246 4.092 1.98-0.177 0.728-3.053 0.23-4.547-0.134l0 0c-1.494-0.364-4.27-1.246-4.092-1.98 0.177-0.728 3.053-0.23 4.547 0.134zm-0.021 0.084c-2.08-0.506-4.303-0.723-4.43-0.2-0.127 0.523 1.945 1.357 4.02 1.862 2.08 0.506 4.303 0.723 4.43 0.2 0.131-0.516-1.945-1.357-4.02-1.862l0 0zm-0.019 0.079c2.48 0.609 4.049 1.399 3.96 1.763-0.089 0.364-1.845 0.345-4.331-0.26l0 0c-2.481-0.604-4.049-1.399-3.96-1.763 0.089-0.364 1.85-0.344 4.331 0.26zm-2.931-0.294c0 0-0.005-0.001-0.005-0.001 0 0-0.001 0.005-0.001 0.005 0.001-0.005 0.007-0.004 0.007-0.004zm5.566 2.009c0 0 0 0 0 0 0 0 0.005 0.001 0.005 0.001-0.005-0.001-0.005-0.001-0.005-0.001zm0 0c0 0 0 0 0 0 0 0 0 0 0 0 0 0 0 0 0 0zm0.005 0.001c0 0 0 0 0 0 0 0 0 0 0 0 0 0 0 0 0 0 0 0 0 0 0 0zm0 0.045c0 0 0 0 0 0 0 0 0 0 0 0 0 0 0 0 0 0 0 0 0 0 0 0zm0 0c0 0 0 0 0 0-0.001 0.005 0.003 0.012 0.005 0.024 0.001-0.005 0.001-0.005-0.004-0.007 0.001-0.005 0.001-0.005 0.001-0.005 0.001-0.005 0.001-0.005 0.001-0.005 0 0 0 0-0.005-0.001 0 0 0.001-0.005 0.001-0.005z" fill="#ffb380"/></g><g transform="matrix(0.02654593,0,0,0.02654593,39.426069,4.6726343)"><path d="M162.127-117.658C120.555-116.662 79.295-97.407 49.353-61.784 18.719-26.373 1.801 25.724 6.223 77.226 10.36 133.879 39.757 184.353 79.721 212.3 136.517 253.164 212.866 248.645 265.703 200.289c36-31.997 59.654-84.195 59.246-139.092 0.01-20.17-3.037-40.275-8.949-59.113C297.78-56.656 253.199-99.188 203.391-112.493c-13.521-3.786-27.408-5.497-41.265-5.165zm0.373 14.02c12.483-0.286 24.978 1.232 37.122 4.632l0.041 0.041 0.041 0c44.485 11.883 85.914 50.744 102.789 105.149l0 0.041C307.97 23.675 310.834 42.462 310.821 61.238l0 0.041c0.378 50.791-22.094 99.705-54.647 128.638l-0.041 0.041-0.041 0.041C207.895 234.108 139.518 237.995 87.966 200.904l-0.041-0.041-0.041 0C51.864 175.675 24.139 128.568 20.31 76.119l0-0.041 0-0.041c-4.091-47.641 12.087-96.654 39.898-128.802l0.041-0.041 0-0.041c27.461-32.671 64.802-49.934 102.251-50.791z" fill="#000"/><path d="m314.138 64.049c0.384 52.067-22.142 101.922-55.577 131.94-49.277 45.552-119.908 49.662-172.753 11.258-37.059-26.177-64.93-74.28-68.815-128.029-4.152-48.842 12.027-98.701 40.532-131.983 37.33-44.86 93.079-61.859 143.147-47.7 45.989 12.409 87.926 52.519 105.043 108.26 5.557 17.883 8.435 37.061 8.422 56.255z" fill="#fff"/><path d="m153.7 17.812c0.572 22.41-20.73 41.593-42.866 39.808-22.173-0.433-41.388-21.677-38.461-43.881 1.834-23.105 26.401-40.19 48.771-34.976 18.265 3.359 32.866 20.331 32.556 39.049zM299.048-27.362 299.048-27.362 299.048-27.362 299.048-27.362 299.048-27.362 299.048-27.362 299.048-27.362" class="s1"/><path d="m299.048-27.362c0.486 27.718-21.908 52.562-48.833 57.272-28.153 6.091-59.686-9.859-69.76-37.178-9.582-23.694-0.116-52.635 20.859-66.936 24.663-18.248 62.515-14.541 82.816 8.59 9.462 10.35 14.989 24.203 14.918 38.251z" class="s1"/><path d="m86.077 119.288c23.913 55.057 66.987 80.627 125.565 75.687 67.676-14.544 88.555-89.065 67.864-143.694-65.327 0.688-151.591 11.948-193.428 68.007z" style="fill:#fff;stroke-width:10.09700108;stroke:#000"/><path d="m240.464 210.257c4.239 7.01 8.936 13.787 16.546 16.818 7.61 3.031 13.957 10.392 20.144 3.435 8.767-9.857 24.249-12.052 36.933-6.776 7.332 3.05 9.584 7.117 6.536 14.567-4.481 10.949-14.909 18.385-26.671 18.459-3.844 0.024-13.32-3.302-6.166 2.494 9.443 7.65 17.27 19.876 14.281 32.908-2 8.72-13.393 5.07-19.866 4.474-15.803-1.456-29.446-11.262-41.337-21.333-3.933 11.27-13.991 20.937-26.642 20.845-9.129-0.066-22.171 1.809-26.777-4.432-7.375-9.991 0.082-30.62 12.364-39.904 5.234-3.956 18.675-5.024 17.985-8.549-1.397-7.133-10.743-20.161-14.938-27.308" class="s1"/><path d="m106.025 13.834c-4.301 31.021-27.382 10.647-14.591-12.472 6.888-14.726 17.747-3.376 14.591 12.472zM268.957-34.793 268.957-34.793 268.957-34.793 268.957-34.793 268.957-34.793 268.957-34.793 268.957-34.793" fill="#000"/><path d="m268.957-34.793c17.788 55.097-47.035 40.075-42.491-9.984 1.996-28.518 32.957-21.256 42.491 9.984z" fill="#000"/><path d="m88.583 208.976c-5.014 12.442-16.592 38.782-33.875 32.96-12.418-7.792-29.598-5.316-41.464 4.269-6.857 5.539-7.985 10.585-2.41 17.588 8.196 10.296 21.629 14.985 34.182 11.401 4.102-1.171 13.78-7.235 7.348 0.742-7.048 11.548-12.187 26.601-4.93 39.583 4.857 8.688 15.853 1.241 22.562-1.411 16.381-6.476 27.851-21.196 37.371-35.652 7.712 10.808 21.448 17.996 34.897 13.958 9.704-2.914 24.189-4.984 27.142-13.072 4.738-12.974-9.659-32.668-25.643-38.754-6.814-2.595-21.466 0.453-21.832-3.526-0.741-8.05 7.084-22.443 9.319-31.38" class="s1"/><path d="m205.403-103.073c-17.523 11.444-30.237 30.638-35.816 51.222 9.437-15.192 22.672-29.19 38.541-39.553 17.289-11.29 34.823-16.401 49.937-15.731-14.846-8.666-34.292-7.934-52.663 4.063zM109.911-52.535 109.911-52.535 109.911-52.535 109.911-52.535 109.911-52.535 109.911-52.535 109.911-52.535" fill="#000"/><path d="m109.911-52.535c19.992 5.166 35.793 21.156 44.174 41.839-11.841-12.929-27.578-22.85-45.683-27.529-19.725-5.097-38.974-3.141-54.962 4.248 14.752-16.258 35.513-23.975 56.471-18.559z" fill="#000"/><path d="m59.296 285.106c-5.971 3.87-9.107 21.355-4.972 24.209 4.37 3.016 18.897-6.197 29.18-14.158 4.645-3.596-14.436-16.385-24.208-10.051zM42.718 247.274 42.718 247.274 42.718 247.274 42.718 247.274 42.718 247.274 42.718 247.274 42.718 247.274" class="s2"/><path d="m42.718 247.274c-5.073-2.405-24.153 2.079-26.519 5.804-2.501 3.935 9.625 9.863 19.738 13.523 4.568 1.653 15.084-15.39 6.781-19.327z" class="s2"/><path d="m163.037 272.624c-0.454-6.504-12.152-22.899-15.942-23.043-4.005-0.152-3.051 15.502-1.308 27.791 0.788 5.552 17.992 5.897 17.249-4.748z" class="s2"/><path d="m286.22 269.336c5.87 2.43 11.328 17.002 8.114 20.082-3.396 3.254-17.645-2.482-27.952-7.782-4.656-2.394 10.232-16.276 19.838-12.3z" class="s2"/><path d="m288.997 234.658c3.697-3.357 21.214-4.719 24.233-2.251 3.19 2.608-5.599 10.78-13.272 16.526-3.466 2.596-17.012-8.781-10.962-14.275z" class="s2"/><path d="m192.823 283.11c-0.701-5.653 6.823-21.663 10.135-22.418 3.5-0.798 5.31 12.785 5.856 23.615 0.246 4.892-14.843 8.057-15.991-1.196z" class="s2"/><path d="m191.73 190.562c4.471-23.236 11.216-33.628 15.56-61.303 30.26 25.32 33.997 27.799 50.838 34.89-18.974 16.741-40.94 27.552-66.398 26.413z" class="s1"/><path d="m109.148 102.038c22.92 14.098 30.368 35.008 46.638 48.605-2.316-1.448 0.838-67.84 14.555-79.269-27.465 5.956-41.921 15.604-61.193 30.664z" class="s2"/><path d="m191.888-104.833c-3.187-13.146-12.163-35.256-28.438-49.099 7.705 44.729-15.149 70.277-12.237 86.189M79.63-75.768 79.63-75.768 79.63-75.768 79.63-75.768 79.63-75.768 79.63-75.768" class="s1"/><path d="m79.63-75.768c-2.858-13.222-4.409-37.032 4.213-56.576 12.549 43.62 44.253 56.675 48.563 72.267" class="s1"/><path d="m263.953 58.425c-11.349 24.389-6.031 45.939-12.109 66.247 1.134-2.484-38.113-56.143-55.861-58.123 26.201-10.16 43.584-10.073 67.97-8.124z" class="s2"/><path d="m-78.506 149.794c11.244-7.632 24.013-19.446 23.149-51.498 7.348 27.398 23.618 44.665 33.974 55.168-17.948-4.51-19.54 3.239-23.305 9.36-20.217 34.282 40.65 28.649 100.919 23.311l24.941 23.542C-29.998 212.726-71.667 195.543-56.003 161.67-57.904 147.451-69.829 151.598-78.506 149.794Z" class="s1"/></g><g transform="matrix(-0.4483054,0,0,0.4483054,158.41026,15.07404)"><path d="m94.515-13.724c0 0 1.203-0.887 1.9-0.697 0.697 0.19 1.837 2.027 1.837 2.027 0 0 0.665 0.918 0.095 1.235-0.57 0.317-0.76 0.475-1.552-0.443-0.792-0.918-0.76-0.918-0.76-0.918M88.751-31.741 88.751-31.741 88.751-31.741 88.751-31.741 88.751-31.741 88.751-31.741 88.751-31.741" class="s3"/><path d="m88.751-31.741c-0.855-0.032-1.013 0.633-1.013 1.108 0 0.475 0.982 1.457 1.552 1.995 0.57 0.538 1.362 0.633 1.742 0.665 0.38 0.032-0.127-0.095 0.538-0.665 0.665-0.57 1.362-0.982 1.868-0.728 0.507 0.253 0.776 0.961 0.492 1.347-0.168 0.228-0.864 0.22-0.706 0.41 0.158 0.19 0.531 1.252 0.531 1.252 1.003 2.839 0.178 0.984-1.33 0.538-0.602-0.158-0.823 0.158-0.887 0.823-0.063 0.665 0.348 2.977 0.348 2.977l1.647 8.17c0 0 0.76 0.57 1.077 1.14 0.317 0.57 0.95 0.507 0.95 0.507l0.697-0.158 0.57 2.312c-0.475 0.855-4.908 1.9-9.816 1.837-4.908-0.063-5.541-1.457-5.541-1.457 0 0-0.19-0.253-0.095-1.14 0.095-0.887 1.805-8.423 1.932-9.5 0.127-1.077 0.855-6.46 0.728-7.03-0.127-0.57-0.127-0.633-0.127-0.633l-2.343-0.317c0 0-0.348 1.14-0.728 1.14-0.38 0-1.013-0.19-1.013-0.982 0-0.792 0.348-2.122 0.728-2.533 0.38-0.412 0.602-0.538 0.918-0.538 0.317 0 0.76 0.538 0.855 0.887 0.095 0.348-0.063 0.697-0.063 0.697l1.647 0.222c0 0 0.253-1.235 0.887-1.837 0.633-0.602 1.267-1.267 2.47-1.108 1.203 0.158 1.461 0.366 1.461 0.366" class="s3"/><path d="m87.01-31.868c0 0-0.823 0.19-0.76 0.887 0.063 0.697 0.538 0.728 0.823 0.823" class="s4"/><path d="m92.456-29.335c0 0-1.678-2.027-2.628-2.248-0.95-0.222-1.14-0.158-1.14-0.158M91.665-28.733 91.665-28.733 91.665-28.733 91.665-28.733 91.665-28.733" class="s3"/><path d="m91.665-28.733c0 0-1.077-0.475-1.267-0.95-0.19-0.475 0.475-0.412 0.475-0.412 0 0 0.443 0.095 0.823 0.348 0.38 0.253 0.602 0.57 0.602 0.57" class="s3"/><path d="m92.808-25.634c0 0 1.073 3.012 1.041 3.867l0.823-0.127c0.001 0.002-0.46-2.674-0.715-2.993-0.14-0.175-1.149-0.748-1.149-0.748z" class="s4"/><path d="m93.596-14.199c0 0 1.298 0.412 1.52 0.728 0.222 0.317 0.348 1.14 0.348 1.14M95.211-13.375 95.211-13.375 95.211-13.375 95.211-13.375 95.211-13.375 95.211-13.375 95.211-13.375" class="s3"/><path d="m95.211-13.375c0 0 0.697 0.063 0.887 0.57 0.19 0.507-0.348 0.538-0.348 0.538" class="s3"/><path d="m80.487-28.543c0 0-0.032-1.045 0.317-1.267 0.348-0.222 0.443 0.633 0.443 0.633l-0.317-0.032" class="s3"/></g><text transform="matrix(0.99703289,-0.0769767,0.0769767,0.99703289,0,0)" y="14.808" x="0.496" xml:space="preserve" style="fill:#fff;font-family:sans-serif;font-size:20px;letter-spacing:0px;line-height:125%;word-spacing:0px"><tspan y="14.808" x="0.496" style="fill:#fff;font-size:10px">Crayon</tspan></text><text transform="matrix(0.88488287,-0.4658136,0.4658136,0.88488287,0,0)" y="38.953" x="27.432" xml:space="preserve" class="s5"><tspan y="38.953" x="27.432">Eating</tspan></text><text transform="matrix(0.99794517,0.06407375,-0.06407375,0.99794517,0,0)" y="9.562" x="75.712" xml:space="preserve" class="s5"><tspan y="9.562" x="75.712">Monsters</tspan></text></g></svg>