<svg xmlns:svg="http://www.w3.org/2000/svg" xmlns="http://www.w3.org/2000/svg" viewBox="0 0 422.9 49.7" preserveAspectRatio="xMidYMid meet" version="1.1">
  <g transform="translate(52.56909,-1.1237451)">
    <path d="m370.3 26.1-0.1 0 0-0.3c-0.1-7-1.7-14-4.9-20.9L364.7 3.5 340.9 3.5 340.1 1.4 310.8 1.3 310.9 1.6 307.6 1.3 13.4 1.1 13.1 2.1 0 2.6-0.6 4.2C-0.8 4.9-1.2 6.2-1.6 8l-47.6 9.4-0.3 0.2c-0.9 0.5-2.3 1.9-2.8 5.8l-0.2 0 0 2.4-0.1 2.1 0.1 0c0.2 2.8 0.8 4.5 2.1 5.4 0.5 0.4 1.2 0.6 1.8 0.6 0.5 0.1 37.1 7.4 47.8 9.5 0.5 1.6 1 3.1 1.6 4.6l0.6 1.6 11.9 0 0.2 1 31.6 0-0.1-0.2 3.2 0.2 292.1 0.2 1.7-2.7 22.8-0.4 0.7-1.3c1.2-2.3 4.1-8.6 4.5-17.7l0-0.2 0.1 0 0-1.1 0-1.2z" fill="#000"/>
  </g>
  <path transform="translate(52.56909,-1.1237451)" d="m-3.3 26.8c-0.3-6.6 0.5-12.2 1.3-16.2l-46.4 9.1c0 0-1.4 0.8-1.6 5.6 11.6-0.2 38.5-0.3 46.6 1.5zM-50 26.2c0 0 0 0.1 0 0.1 0 5.6 1.6 5.1 1.6 5.1L-1.3 40.7c-1.2-4.4-1.8-8.7-2-12.6-6.8 0.7-31.4-0.1-46.7-1.9zm61.5 8.2c-0.4-4.2-0.8-9-0.8-13.8 0-3.8 0.2-7.5 0.8-11C11.8 7.9 12.1 6.2 12.6 4.7 12.3 4.7 11.9 4.7 11.5 4.7 11.2 4.7 10.8 4.7 10.5 4.7 7.4 4.8 2.7 5 1.8 5 1.5 5.9 1 7.7 0.4 10.1c-0.7 3.3-1.5 7.8-1.5 13.1 0.8-0.4 2.5-0.5 4.3-0.4 2.5 0.1 5.3 0.7 7.3 1.7 0.1 0.1 0.2 0.1 0.3 0.2 0 0-0.1 0-0.3 0.1-1 0.2-4.3 0.8-7.3 0.8-1.8 0-3.4-0.2-4.3-0.9 0 5 0.7 10.6 2.3 16.5 0.5 1.9 1.2 3.9 2 5.9l10.1 0C13.1 46 12.8 44.5 12.6 42.6 12.2 40.3 11.8 37.5 11.5 34.3ZM346.5 27.3c0 0 0 0 0 0 0 0.3 0 0.5 0 0.8 0 0.9 0.1 1.8 0.1 2.8 0 0.8 0 1.7-0.1 2.5-0.1 2.5-0.5 4.9-1.1 7.2-0.4 1.8-1 3.5-1.8 5.1 0.4 0 1.1 0 1.8 0 0.3 0 0.7 0 1.1 0 0.3 0 0.7 0 1.1 0 5.7-0.1 14.8-0.3 15.9-0.3 1-1.9 3.8-7.9 4.2-16.6-7.9-0.1-15.5-0.5-20.1-1.1-0.4-0.1-0.7-0.1-1.1-0.2zm-0.2-1.5c0.1 0 0.1 0 0.2 0 0.3 0 0.7 0 1.1-0.1 4.4-0.2 11.9-0.1 20.2 0.2-0.1-5.8-1.3-12.6-4.7-19.9l-20.8 0c0.8 2.5 2.2 7.2 3.2 12.9 0.4 2.2 0.7 4.5 0.9 6.9z" fill="#0071bc"/>
  <path d="M67.8 2.5L67.6 3C62.8 17.7 67.8 44.9 68.2 47L93 47C88.6 40.4 85 32.4 85 23.3 85 14.1 88.6 7.3 93.3 2.5L93.3 2.5 67.8 2.5zM105.5 2.5C100.2 5.1 92.2 11.1 92.2 23.4 92.2 32.5 97 40.8 102.1 47L355.8 47.2C361.1 44.6 369 38.6 369 26.4 369 17.2 364.1 8.9 359 2.7L359 2.7 105.5 2.5zM368.1 2.7C372.5 9.3 376.2 17.4 376.2 26.4 376.2 35.6 372.5 42.4 367.9 47.2L391.6 47.2 392.7 45.5C401.3 31.3 391.6 4.5 391.5 4.2L391.5 4.2 390.9 2.8 368.1 2.7zM237.5 7.5C265.8 7.5 319.3 11.2 319.3 25.1 319.3 38.9 265.7 42.5 237.4 42.5L237.4 42.5C209.1 42.5 155.6 38.8 155.6 24.9 155.6 11.1 209.2 7.5 237.5 7.5zM237.5 9.1C198.1 9.1 157.4 14.9 157.4 24.8 157.4 34.7 198.1 40.6 237.4 40.6 276.8 40.6 317.5 34.8 317.5 24.9 317.6 15.1 276.8 9.1 237.5 9.1L237.5 9.1zM237.5 10.6C284.5 10.7 316 18 316 24.9 316 31.8 284.5 39.1 237.4 39.1L237.4 39.1C190.4 39.1 158.9 31.7 158.9 24.8 158.9 17.9 190.5 10.6 237.5 10.6zM183.8 18.1C183.8 18.1 183.7 18.1 183.7 18.1 183.7 18.1 183.7 18.2 183.7 18.2 183.7 18.1 183.8 18.1 183.8 18.1zM292.1 29.8C292.1 29.8 292.1 29.8 292.1 29.8 292.1 29.8 292.2 29.8 292.2 29.8 292.1 29.8 292.1 29.8 292.1 29.8zM292.1 29.8C292.1 29.8 292.1 29.8 292.1 29.8 292.1 29.8 292.1 29.8 292.1 29.8 292.1 29.8 292.1 29.8 292.1 29.8zM292.2 29.8C292.2 29.8 292.2 29.8 292.2 29.8 292.2 29.8 292.2 29.8 292.2 29.8 292.2 29.8 292.2 29.8 292.2 29.8 292.2 29.8 292.2 29.8 292.2 29.8zM292.4 30.6C292.4 30.6 292.4 30.6 292.4 30.6 292.4 30.6 292.4 30.6 292.4 30.6 292.4 30.6 292.4 30.6 292.4 30.6 292.4 30.6 292.4 30.6 292.4 30.6zM292.4 30.6C292.4 30.6 292.4 30.6 292.4 30.6 292.4 30.7 292.5 30.8 292.6 31 292.6 30.9 292.6 30.9 292.5 30.9 292.5 30.8 292.5 30.8 292.5 30.8 292.5 30.7 292.5 30.7 292.5 30.7 292.5 30.7 292.5 30.7 292.4 30.7 292.4 30.7 292.4 30.6 292.4 30.6z" fill="#95b5df"/>
</svg>